<?xml version="1.0" encoding="utf-8"?>
<!-- Generator: Adobe Illustrator 16.0.0, SVG Export Plug-In . SVG Version: 6.00 Build 0)  -->
<!DOCTYPE svg PUBLIC "-//W3C//DTD SVG 1.1//EN" "http://www.w3.org/Graphics/SVG/1.1/DTD/svg11.dtd">
<svg version="1.1" id="Layer_1" xmlns="http://www.w3.org/2000/svg" xmlns:xlink="http://www.w3.org/1999/xlink" x="0px" y="0px"
	 width="270px" height="128px" viewBox="147.465 219.465 270 128" enable-background="new 147.465 219.465 270 128"
	 xml:space="preserve">
<g>
	<g>
		<path fill="#999998" d="M153.853,271.768v-32.296h2.323v19.588l18.859-19.634h2.688l-13.438,14.167l14.121,18.174h-2.642
			l-12.982-16.763l-6.605,6.787v9.976H153.853z"/>
		<path fill="#999998" d="M179.951,264.89c0-4.1,4.101-7.014,9.885-7.014c2.551,0,5.33,0.501,7.379,1.275v-2.323
			c0-4.464-2.779-7.334-7.106-7.334c-2.369,0-5.01,1.002-7.607,2.823l-0.912-1.548c3.052-2.05,5.922-3.098,8.655-3.098
			c5.694,0,9.247,3.554,9.247,9.337v11.571c0,0.774,0.319,1.139,0.957,1.139v2.049c-0.319,0.047-0.592,0.047-0.82,0.047
			c-1.093,0-2.187-0.82-2.187-2.05v-1.959c-2.187,2.824-5.739,4.418-9.657,4.418C183.367,272.225,179.951,269.036,179.951,264.89z
			 M196.44,266.759c0.502-0.593,0.775-1.276,0.775-1.823v-4.191c-2.232-0.819-4.646-1.275-7.106-1.275
			c-4.737,0-7.926,2.142-7.926,5.284c0,3.189,2.642,5.649,6.059,5.649C191.75,270.403,194.983,268.991,196.44,266.759z"/>
		<path fill="#999998" d="M206.46,242.706v-4.191h2.277v4.191H206.46z M206.46,271.768v-23.687h2.277v23.687H206.46z"/>
		<path fill="#999998" d="M218.848,243.8v27.968h-2.323v-32.342h1.777l22.686,28.471v-28.425h2.323v32.296h-2.141L218.848,243.8z"/>
		<path fill="#999998" d="M249.136,264.89c0-4.1,4.101-7.014,9.885-7.014c2.551,0,5.33,0.501,7.38,1.275v-2.323
			c0-4.464-2.779-7.334-7.106-7.334c-2.369,0-5.011,1.002-7.607,2.823l-0.911-1.548c3.052-2.05,5.921-3.098,8.655-3.098
			c5.693,0,9.247,3.554,9.247,9.337v11.571c0,0.774,0.318,1.139,0.957,1.139v2.049c-0.318,0.047-0.593,0.047-0.82,0.047
			c-1.094,0-2.187-0.82-2.187-2.05v-1.959c-2.187,2.824-5.739,4.418-9.657,4.418C252.553,272.225,249.136,269.036,249.136,264.89z
			 M265.626,266.759c0.501-0.593,0.775-1.276,0.775-1.823v-4.191c-2.232-0.819-4.646-1.275-7.106-1.275
			c-4.737,0-7.927,2.142-7.927,5.284c0,3.189,2.642,5.649,6.059,5.649C260.935,270.403,264.169,268.991,265.626,266.759z"/>
		<path fill="#999998" d="M282.16,271.768l-9.886-23.687h2.415l8.701,21.41l8.792-21.41h2.231l-9.885,23.687H282.16z"/>
		<path fill="#A2C617" d="M160.038,285.051c3.443,0,5.958,1.776,7.133,4.237l-1.148,0.654c-1.339-2.678-3.826-3.607-6.095-3.607
			c-4.919,0-7.68,4.371-7.68,8.473c0,4.562,3.39,8.635,7.761,8.635c2.324,0,5.056-1.148,6.396-3.797l1.175,0.572
			c-1.284,2.924-4.7,4.51-7.679,4.51c-5.302,0-9.046-5.082-9.046-10.002C150.855,290.052,154.216,285.051,160.038,285.051z"/>
		<path fill="#A2C617" d="M169.383,297.485c0-3.99,3.034-7.379,6.942-7.379c3.935,0,6.968,3.389,6.968,7.379
			c0,3.963-3.006,7.352-6.968,7.352C172.336,304.837,169.383,301.448,169.383,297.485z M176.326,303.606
			c3.034,0,5.575-2.762,5.575-6.148c0-3.336-2.542-6.123-5.575-6.123c-3.007,0-5.548,2.816-5.548,6.205
			C170.778,300.901,173.265,303.606,176.326,303.606z"/>
		<path fill="#A2C617" d="M197.86,304.563h-1.366v-7.926c0-3.662-1.012-5.275-3.28-5.275c-2.405,0-4.865,1.889-5.603,4.4v8.801
			h-1.366v-14.213h1.258v3.391c1.147-2.16,3.58-3.635,6.122-3.635c3.087,0,4.235,2.268,4.235,6.285V304.563L197.86,304.563z"/>
		<path fill="#A2C617" d="M200.402,302.649l0.683-0.93c1.531,1.367,3.143,2.021,5.083,2.021c2.46,0,4.126-1.092,4.126-2.949
			c0-1.777-1.558-2.242-4.536-2.953c-3.226-0.764-4.701-1.283-4.701-3.523c0-2.844,2.377-4.211,5.22-4.211
			c2.213,0,4.017,0.822,4.947,1.996l-0.766,0.74c-0.929-1.094-2.569-1.643-4.264-1.643c-2.103,0-3.826,0.875-3.826,2.926
			c0,1.641,1.093,1.969,3.717,2.596c3.58,0.848,5.548,1.475,5.548,3.938c0,2.539-2.159,4.18-5.466,4.18
			C203.982,304.837,201.877,304.099,200.402,302.649z"/>
		<path fill="#A2C617" d="M213.547,297.403c0-4.016,3.005-7.297,6.969-7.297c4.017,0,6.941,3.334,6.969,7.297
			c0,0.191-0.028,0.52-0.028,0.602h-12.49c0.246,3.279,2.706,5.738,5.657,5.738c1.995,0,3.936-1.119,4.646-2.732l1.202,0.328
			c-0.847,2.021-3.252,3.498-5.903,3.498C216.581,304.837,213.547,301.448,213.547,297.403z M226.146,296.911
			c-0.246-3.334-2.623-5.686-5.629-5.686c-2.979,0-5.384,2.379-5.575,5.686H226.146z"/>
		<path fill="#A2C617" d="M236.913,291.581c-2.569,0.084-4.592,1.613-5.357,4.1v8.883h-1.367v-14.213h1.285v3.498
			c0.984-1.994,2.733-3.332,4.564-3.523c0.355,0,0.656-0.027,0.875-0.027V291.581L236.913,291.581z"/>
		<path fill="#A2C617" d="M243.608,304.563l-5.93-14.211h1.449l5.22,12.846l5.274-12.846h1.339l-5.929,14.211H243.608z"/>
		<path fill="#A2C617" d="M251.779,300.437c0-2.459,2.459-4.209,5.931-4.209c1.53,0,3.197,0.301,4.427,0.766v-1.395
			c0-2.678-1.667-4.4-4.263-4.4c-1.421,0-3.007,0.604-4.564,1.697l-0.547-0.932c1.831-1.229,3.554-1.859,5.193-1.859
			c3.417,0,5.547,2.133,5.547,5.604v6.941c0,0.465,0.191,0.684,0.574,0.684v1.229c-0.192,0.029-0.355,0.029-0.492,0.029
			c-0.655,0-1.311-0.492-1.311-1.23v-1.176c-1.312,1.695-3.444,2.65-5.794,2.65C253.829,304.837,251.779,302.925,251.779,300.437z
			 M261.672,301.556c0.301-0.355,0.464-0.764,0.464-1.092v-2.516c-1.34-0.49-2.787-0.764-4.263-0.764
			c-2.843,0-4.756,1.283-4.756,3.17c0,1.914,1.586,3.387,3.635,3.387C258.857,303.743,260.797,302.897,261.672,301.556z"/>
		<path fill="#A2C617" d="M273.614,303.88c-0.273,0.164-1.475,0.848-2.979,0.848c-1.502,0-2.816-0.902-2.816-2.543v-10.713h-1.995
			v-1.121h1.995v-4.863h1.367v4.863h3.335v1.121h-3.335v10.387c0,1.066,0.875,1.584,1.804,1.584c1.121,0,2.05-0.545,2.215-0.654
			L273.614,303.88z"/>
		<path fill="#A2C617" d="M275.637,287.127v-2.514h1.366v2.514H275.637z M275.637,304.563v-14.213h1.366v14.211h-1.366V304.563z"/>
		<path fill="#A2C617" d="M279.982,297.485c0-3.99,3.033-7.379,6.94-7.379c3.937,0,6.971,3.389,6.971,7.379
			c0,3.963-3.006,7.352-6.971,7.352C282.935,304.837,279.982,301.448,279.982,297.485z M286.922,303.606
			c3.035,0,5.576-2.762,5.576-6.148c0-3.336-2.541-6.123-5.576-6.123c-3.005,0-5.546,2.816-5.546,6.205
			C281.376,300.901,283.863,303.606,286.922,303.606z"/>
		<path fill="#A2C617" d="M308.458,304.563h-1.366v-7.926c0-3.662-1.011-5.275-3.279-5.275c-2.405,0-4.864,1.889-5.602,4.4v8.801
			h-1.367v-14.213h1.259v3.391c1.146-2.16,3.579-3.635,6.12-3.635c3.088,0,4.235,2.268,4.235,6.285V304.563z"/>
		<path fill="#999998" d="M152.14,337.358v-19.404h12.625v1.258h-11.231v7.705h9.537v1.205h-9.537v9.236H152.14z"/>
		<path fill="#999998" d="M165.694,330.28c0-3.99,3.034-7.379,6.942-7.379c3.935,0,6.969,3.389,6.969,7.379
			c0,3.961-3.006,7.352-6.969,7.352C168.646,337.632,165.694,334.241,165.694,330.28z M172.636,336.401
			c3.034,0,5.576-2.76,5.576-6.15c0-3.334-2.542-6.119-5.576-6.119c-3.007,0-5.548,2.814-5.548,6.203
			C167.089,333.696,169.575,336.401,172.636,336.401z"/>
		<path fill="#999998" d="M182.392,331.347v-8.201h1.366v8.008c0,3.527,1.175,5.248,3.58,5.248s4.701-1.721,5.548-4.289v-8.967
			h1.367v12.299c0,0.439,0.164,0.684,0.573,0.684v1.23c-0.218,0.027-0.355,0.027-0.492,0.027c-0.766,0-1.312-0.52-1.312-1.229v-2.16
			c-1.257,2.268-3.58,3.635-6.067,3.635C183.95,337.632,182.392,335.499,182.392,331.347z"/>
		<path fill="#999998" d="M209.939,337.358h-1.367v-7.926c0-3.662-1.011-5.275-3.279-5.275c-2.405,0-4.865,1.885-5.603,4.4v8.801
			h-1.367v-14.213h1.258v3.389c1.147-2.158,3.581-3.633,6.121-3.633c3.088,0,4.236,2.268,4.236,6.285V337.358L209.939,337.358z"/>
		<path fill="#999998" d="M212.754,330.28c0-3.963,2.76-7.379,6.532-7.379c2.488,0,4.456,1.529,5.548,3.334v-8.826h1.366v18.035
			c0,0.439,0.191,0.684,0.574,0.684v1.23c-0.164,0.027-0.328,0.027-0.464,0.027c-0.792,0-1.339-0.602-1.339-1.229v-1.643
			c-1.148,1.887-3.279,3.117-5.384,3.117C215.624,337.632,212.754,334.052,212.754,330.28z M224.834,332.575v-4.674
			c-0.765-2.076-3.17-3.77-5.247-3.77c-3.28,0-5.438,3.061-5.438,6.176c0,3.252,2.514,6.094,5.685,6.094
			C221.828,336.401,224.615,334.653,224.834,332.575z"/>
		<path fill="#999998" d="M229.097,333.231c0-2.459,2.46-4.209,5.931-4.209c1.53,0,3.198,0.301,4.428,0.766v-1.393
			c0-2.68-1.667-4.402-4.264-4.402c-1.421,0-3.007,0.604-4.565,1.695l-0.546-0.93c1.831-1.229,3.553-1.857,5.192-1.857
			c3.416,0,5.547,2.131,5.547,5.602v6.941c0,0.465,0.191,0.682,0.574,0.682v1.23c-0.191,0.027-0.355,0.027-0.492,0.027
			c-0.656,0-1.312-0.49-1.312-1.229v-1.176c-1.312,1.695-3.443,2.652-5.793,2.652C231.146,337.632,229.097,335.718,229.097,333.231z
			 M238.99,334.351c0.301-0.355,0.464-0.764,0.464-1.092v-2.516c-1.339-0.492-2.788-0.764-4.264-0.764
			c-2.842,0-4.755,1.283-4.755,3.17c0,1.912,1.585,3.389,3.635,3.389C236.175,336.538,238.116,335.692,238.99,334.351z"/>
		<path fill="#999998" d="M250.932,336.675c-0.272,0.164-1.476,0.846-2.979,0.846s-2.815-0.902-2.815-2.541v-10.711h-1.995v-1.123
			h1.995v-4.863h1.367v4.863h3.334v1.123h-3.334v10.385c0,1.064,0.874,1.586,1.803,1.586c1.121,0,2.05-0.547,2.214-0.656
			L250.932,336.675z"/>
		<path fill="#999998" d="M252.955,319.923v-2.516h1.367v2.516H252.955z M252.955,337.358v-14.213h1.367v14.213H252.955z"/>
		<path fill="#999998" d="M257.299,330.28c0-3.99,3.034-7.379,6.942-7.379c3.935,0,6.969,3.389,6.969,7.379
			c0,3.961-3.007,7.352-6.969,7.352C260.251,337.632,257.299,334.241,257.299,330.28z M264.242,336.401
			c3.033,0,5.574-2.76,5.574-6.15c0-3.334-2.542-6.119-5.574-6.119c-3.007,0-5.548,2.814-5.548,6.203
			C258.694,333.696,261.181,336.401,264.242,336.401z"/>
		<path fill="#999998" d="M285.777,337.358h-1.367v-7.926c0-3.662-1.011-5.275-3.279-5.275c-2.405,0-4.866,1.885-5.604,4.4v8.801
			h-1.366v-14.213h1.258v3.389c1.147-2.158,3.581-3.633,6.121-3.633c3.088,0,4.236,2.268,4.236,6.285V337.358z"/>
	</g>
	<g>
		<path fill="#A2C617" d="M379.928,321.369l-0.041,0.071l-0.045,0.061l-0.088,0.117c-0.062,0.07-0.124,0.135-0.19,0.188
			c-0.129,0.117-0.265,0.203-0.404,0.275c-0.282,0.14-0.564,0.28-0.841,0.427c-0.552,0.293-1.095,0.6-1.613,0.919
			c-0.516,0.319-1.018,0.648-1.444,0.986c-0.215,0.17-0.408,0.343-0.55,0.501c-0.067,0.078-0.123,0.154-0.154,0.209
			c-0.016,0.028-0.024,0.05-0.028,0.064c0,0.005-0.001,0.013,0.001,0.013c0,0.001,0,0.001,0.003,0h0.001
			c0.002-0.005,0,0-0.004,0.012c-0.17,0.606-0.384,1.262-0.661,1.911c-0.275,0.652-0.626,1.287-1.012,1.873
			c-0.389,0.585-0.819,1.129-1.261,1.64l-0.185,0.204l-0.178,0.188c-0.117,0.125-0.234,0.249-0.354,0.365
			c-0.24,0.239-0.482,0.471-0.729,0.695c-0.982,0.902-2.024,1.715-3.134,2.466c-0.557,0.374-1.134,0.727-1.74,1.056
			c-0.608,0.327-1.247,0.626-1.96,0.87c-0.356,0.118-0.737,0.224-1.145,0.293l-0.117,0.02c-0.038,0.006-0.074,0.013-0.128,0.02
			c-0.097,0.015-0.197,0.029-0.293,0.04c-0.184,0.022-0.369,0.038-0.555,0.052c-0.749,0.043-1.521,0.01-2.276-0.157
			c-0.375-0.085-0.746-0.206-1.09-0.351c-0.17-0.072-0.337-0.15-0.476-0.223c-0.067-0.034-0.133-0.066-0.153-0.082
			c0-0.002-0.011-0.009,0.005-0.006h0.016l0.049,0.009l0.088,0.01c0.054,0.002,0.066,0.002,0.155,0
			c-0.026,0-0.006-0.001,0.038-0.006c0.049-0.006,0.026-0.005,0.035-0.007c-0.001-0.004-0.03-0.004-0.062-0.001l-0.103,0.007
			l-0.231,0.022l-0.485,0.048l-0.999,0.107c-0.337,0.037-0.678,0.075-1.028,0.105c-0.177,0.012-0.354,0.039-0.538,0.092
			c-0.185,0.049-0.376,0.122-0.581,0.184c-0.205,0.06-0.428,0.107-0.665,0.105c-0.238-0.001-0.49-0.056-0.764-0.161
			c-0.27-0.103-0.572-0.254-0.87-0.504c-0.147-0.125-0.293-0.277-0.419-0.449c-0.032-0.043-0.062-0.086-0.091-0.133l-0.043-0.069
			c-0.026-0.045,0.001,0.005-0.069-0.12l-0.048-0.108l-0.037-0.082l-0.049-0.117l-0.046-0.118c-0.015-0.038-0.021-0.063-0.033-0.098
			c-0.04-0.127-0.068-0.25-0.096-0.374c-0.045-0.244-0.069-0.479-0.073-0.699c-0.01-0.442,0.039-0.841,0.097-1.212
			c0.06-0.371,0.131-0.718,0.198-1.053c0.063-0.333,0.129-0.656,0.191-0.956c0.029-0.149,0.056-0.294,0.079-0.423
			c0.021-0.127,0.031-0.254,0.033-0.289l0.001-0.005c0-0.011,0.006,0.08,0.001,0.025l-0.001-0.024
			c0.001,0.019,0.004,0.036,0.006,0.052l0.007,0.033l0.003,0.011c0.002,0.005,0.002,0.005,0.002,0.009c0-0.001,0-0.001,0-0.004
			l-0.005-0.014c-0.004-0.012-0.012-0.026-0.021-0.047c-0.034-0.076-0.094-0.184-0.163-0.296c-0.143-0.227-0.32-0.476-0.503-0.729
			l-0.57-0.786c-0.381-0.547-0.796-1.105-1.189-1.752c-0.195-0.325-0.38-0.68-0.531-1.074c-0.072-0.199-0.137-0.407-0.188-0.628
			c-0.023-0.11-0.045-0.224-0.061-0.34l-0.037-0.272c-0.009-0.08-0.02-0.155-0.026-0.238l-0.02-0.268l-0.009-0.135l-0.004-0.126
			l-0.008-0.251c-0.003-0.33,0.007-0.641,0.02-0.924c0.012-0.277,0.022-0.533,0.026-0.794c-0.005-0.131-0.002-0.262-0.012-0.396
			l-0.011-0.203l-0.022-0.207c-0.062-0.556-0.206-1.136-0.401-1.704l-0.146-0.43l-0.157-0.441l-0.315-0.88
			c-0.429-1.182-0.87-2.374-1.279-3.62c-0.202-0.624-0.397-1.262-0.554-1.945c-0.077-0.342-0.146-0.695-0.191-1.077
			c-0.014-0.094-0.023-0.193-0.03-0.293c-0.01-0.097-0.013-0.202-0.018-0.307c-0.006-0.102-0.001-0.219,0-0.325
			c0.004-0.115,0.008-0.229,0.022-0.352l0.025-0.187c0.008-0.062,0.025-0.133,0.038-0.198l0.021-0.1l0.025-0.094l0.023-0.078
			l0.034-0.106c0.079-0.232,0.164-0.424,0.251-0.605c0.173-0.357,0.353-0.663,0.532-0.959c0.36-0.583,0.724-1.113,1.073-1.634
			c0.348-0.521,0.684-1.029,0.979-1.524c0.146-0.248,0.282-0.494,0.396-0.727c0.114-0.233,0.206-0.46,0.256-0.639
			c0.026-0.088,0.04-0.162,0.043-0.207c0.002-0.013,0-0.018,0.002-0.028c0-0.002-0.001-0.004-0.001-0.007v-0.004
			c0,0.02,0-0.012,0-0.015l-0.001-0.107l-0.002-0.085c-0.01-0.254-0.035-0.528-0.07-0.814c-0.069-0.57-0.176-1.183-0.272-1.83
			c-0.096-0.648-0.188-1.333-0.2-2.09c-0.005-0.38,0.011-0.78,0.075-1.204c0.063-0.423,0.179-0.877,0.387-1.328
			c0.103-0.226,0.229-0.449,0.378-0.661l0.097-0.132l0.07-0.097l0.145-0.194l0.577-0.766l1.155-1.51
			c0.188-0.245,0.38-0.497,0.541-0.719c0.037-0.052,0.077-0.105,0.088-0.125l0.003-0.005l-0.009,0.015l-0.024,0.043
			c-0.017,0.038-0.01,0.01-0.077,0.174c-0.051,0.133-0.122,0.565-0.084,0.352c-0.045,0.203,0.032,0.6,0.048,0.614
			c0.033,0.109,0.062,0.178,0.087,0.229c0.032,0.065,0.049,0.092,0.072,0.129c0.024,0.041,0.037,0.058,0.053,0.081l0.041,0.052
			c0.025,0.03,0.038,0.045,0.054,0.061c0.024,0.024,0.038,0.037,0.042,0.04c0.009,0.008-0.006-0.003-0.027-0.017
			c-0.044-0.028-0.123-0.068-0.21-0.106c-0.089-0.037-0.188-0.075-0.293-0.107c-0.104-0.035-0.218-0.066-0.331-0.093
			c-0.059-0.013-0.116-0.026-0.176-0.038l-0.201-0.037c-0.675-0.126-1.367-0.277-2.09-0.538c-0.361-0.131-0.729-0.29-1.11-0.511
			c-0.378-0.223-0.779-0.505-1.151-0.937c-0.093-0.107-0.182-0.227-0.266-0.354c-0.04-0.062-0.08-0.133-0.119-0.199
			c0.025,0.051-0.069-0.128-0.062-0.117l-0.012-0.027l-0.024-0.055l-0.023-0.054l-0.031-0.076c-0.021-0.051-0.04-0.103-0.058-0.153
			c-0.022-0.061-0.026-0.084-0.037-0.121l-0.026-0.101c-0.022-0.072-0.031-0.129-0.044-0.19c-0.014-0.062-0.026-0.123-0.032-0.177
			c-0.072-0.454-0.078-0.824-0.078-1.187c0.003-0.72,0.06-1.378,0.112-2.031c0.055-0.652,0.111-1.292,0.156-1.925
			c0.024-0.317,0.044-0.631,0.063-0.943c0.02-0.312,0.021-0.62,0.003-0.931c-0.01-0.158-0.02-0.321-0.035-0.479
			c-0.017-0.159-0.034-0.314-0.057-0.463c-0.023-0.148-0.048-0.292-0.074-0.418c-0.028-0.127-0.062-0.243-0.092-0.317
			c-0.032-0.074-0.068-0.11-0.077-0.058c-0.003,0.011-0.003,0.039,0.002,0.056c0.004,0.031,0.011,0.056,0.023,0.093
			c0.013,0.039,0.029,0.071,0.052,0.118c0.023,0.04,0.05,0.084,0.079,0.126c0.034,0.041,0.063,0.082,0.102,0.115
			c0.029,0.035,0.07,0.066,0.1,0.089c0.028,0.025,0.064,0.047,0.083,0.061c0.011,0.008,0.023,0.015,0.035,0.021l0.024,0.014
			c0.062,0.032,0.045,0.019-0.009,0.003c-0.049-0.017-0.146-0.041-0.248-0.067l-0.083-0.021c0.04,0.002-0.076-0.008-0.076-0.008
			l-0.027-0.007l-0.06-0.013l-0.058-0.015l-0.031-0.007l-0.053-0.011l-0.212-0.048l-0.051-0.013l-0.046-0.013l-0.087-0.027
			c-0.058-0.017-0.114-0.035-0.172-0.055c-0.112-0.041-0.224-0.081-0.33-0.128c-0.218-0.09-0.42-0.194-0.617-0.299
			c-0.39-0.214-0.744-0.444-1.078-0.674c-0.339-0.229-0.644-0.473-0.928-0.725c-0.566-0.503-1.048-1.052-1.47-1.558l-0.076-0.092
			l-0.021-0.022c-0.01-0.013,0.021,0.024,0-0.002l-0.039-0.045l-0.076-0.089c-0.016-0.017-0.023-0.025-0.03-0.034l-0.024-0.026
			l-0.048-0.053l-0.058-0.059c-0.04-0.042-0.08-0.077-0.119-0.117c-0.079-0.072-0.159-0.141-0.234-0.2
			c-0.077-0.059-0.154-0.111-0.199-0.137c-0.01-0.007-0.02-0.011-0.005-0.005c0.032,0.013-0.056-0.02,0.118,0.045l-0.014-0.004
			l-0.043-0.014l-0.185-0.06c-0.129-0.04-0.26-0.077-0.39-0.112c-0.262-0.067-0.522-0.126-0.77-0.166
			c-0.247-0.041-0.479-0.061-0.67-0.062c-0.091,0.001-0.169,0.007-0.219,0.015c-0.026,0.002-0.042,0.007-0.05,0.007
			c0,0.001-0.008,0-0.002,0c0.003-0.001,0.005-0.002,0.007-0.003l0.003-0.003c0.015-0.007-0.084,0.036-0.056,0.025l-0.226,0.094
			l-0.319,0.119l-0.277,0.091l-0.274,0.079c-0.361,0.098-0.715,0.175-1.066,0.238c-0.705,0.125-1.389,0.198-2.126,0.224
			l-0.276,0.003l-0.23,0l-0.492,0.001c-0.335-0.001-0.676-0.009-1.023-0.027c-0.694-0.041-1.407-0.109-2.166-0.287
			c-0.381-0.093-0.771-0.21-1.182-0.392c-0.102-0.044-0.207-0.097-0.311-0.151l-0.253-0.141l-0.412-0.233l-0.373-0.201l-0.389-0.196
			c-0.128-0.061-0.258-0.125-0.382-0.18c-0.065-0.03-0.126-0.057-0.187-0.081l-0.086-0.036c-0.024-0.009-0.062-0.024-0.059-0.021
			l1.363-0.082l-0.139,0.083l-0.129,0.074l-0.253,0.144c-0.171,0.09-0.342,0.179-0.513,0.265c-0.345,0.173-0.693,0.333-1.052,0.483
			c-0.717,0.3-1.461,0.563-2.275,0.753c-0.406,0.097-0.833,0.171-1.297,0.212c-0.465,0.033-0.965,0.044-1.546-0.07
			c-0.145-0.028-0.296-0.068-0.449-0.116c-0.02-0.005-0.075-0.023-0.066-0.021l-0.031-0.011l-0.062-0.022l-0.142-0.053
			c-0.114-0.041-0.229-0.084-0.327-0.128c-0.102-0.041-0.202-0.088-0.303-0.134c-0.4-0.188-0.796-0.396-1.146-0.67
			c-0.352-0.27-0.653-0.602-0.924-0.941c-0.27-0.343-0.52-0.686-0.776-1.014c-0.525-0.642-0.985-1.32-1.37-2.027
			c-0.39-0.705-0.711-1.434-0.987-2.172l-0.188-0.5l-0.092-0.237l-0.046-0.118l-0.046-0.109c-0.03-0.071-0.062-0.147-0.091-0.213
			l-0.087-0.188c-0.062-0.111-0.118-0.218-0.188-0.324c-0.027-0.051-0.075-0.112-0.112-0.168l-0.057-0.086l-0.068-0.096
			l-0.069-0.096l-0.032-0.048l-0.019-0.024c-0.007-0.013,0.017,0.024-0.003-0.003l-0.079-0.108l-0.021-0.027
			c-0.007-0.011-0.007-0.009-0.011-0.015l-0.02-0.022c-0.014-0.015-0.025-0.03-0.039-0.042c-0.013-0.013-0.026-0.029-0.031-0.029
			c-0.003-0.002-0.006-0.006-0.008-0.008c-0.003-0.003,0,0.002,0,0.003c0.002,0.002,0.002,0.001,0.005,0.005
			c0.006,0.005,0.01,0.01,0.016,0.014c0.019,0.017,0.059,0.038,0.037,0.03l-0.163-0.066c-0.183-0.073-0.418-0.176-0.623-0.285
			l-0.152-0.084l-0.037-0.021l-0.083-0.047l-0.057-0.036c-0.004-0.002-0.075-0.05-0.12-0.083c-0.048-0.033-0.107-0.075-0.141-0.104
			c-0.077-0.062-0.152-0.128-0.225-0.201c-0.292-0.289-0.536-0.669-0.668-1.085c-0.132-0.417-0.158-0.859-0.086-1.262
			c0.069-0.406,0.229-0.771,0.434-1.078c0.205-0.309,0.46-0.562,0.729-0.758c0.136-0.099,0.274-0.182,0.417-0.257
			c0.069-0.034,0.14-0.07,0.211-0.102l0.1-0.04c0.045-0.02,0.072-0.028,0.106-0.041c0.261-0.094,0.481-0.146,0.691-0.19
			c0.416-0.085,0.783-0.133,1.125-0.186c0.339-0.051,0.659-0.105,0.896-0.171c0.117-0.03,0.21-0.067,0.233-0.075
			c0.013-0.003-0.003,0.006-0.033,0.046c-0.035,0.041-0.094,0.125-0.127,0.239c-0.018,0.055-0.025,0.115-0.027,0.166
			c-0.001,0.028-0.002,0.049,0.001,0.073c0,0.008,0.001,0.018,0.002,0.029c0.001,0.008,0.013,0.087,0.005,0.036l-0.008-0.061
			c0.001,0.014,0.004,0.029,0.007,0.041c0.005,0.016,0.007,0.014,0.009,0.024c0.012,0.03,0.039,0.052,0.017,0.032
			c-0.021-0.018-0.082-0.062-0.179-0.107c-0.095-0.045-0.22-0.093-0.361-0.14c-0.283-0.094-0.625-0.181-1.006-0.301
			c-0.192-0.061-0.396-0.128-0.612-0.222c-0.218-0.093-0.449-0.208-0.694-0.377c-0.245-0.168-0.503-0.4-0.714-0.714
			c-0.211-0.311-0.352-0.694-0.396-1.043c-0.025-0.175-0.031-0.344-0.024-0.5l0.003-0.059c-0.002,0.014,0.008-0.088,0.008-0.087
			l0.007-0.066l0.019-0.12c0.007-0.048,0.016-0.102,0.025-0.144c0.035-0.164,0.086-0.334,0.16-0.502
			c0.075-0.167,0.168-0.332,0.28-0.483c0.224-0.302,0.51-0.533,0.78-0.687c0.272-0.156,0.531-0.249,0.772-0.314
			c0.48-0.128,0.898-0.161,1.286-0.184c0.386-0.023,0.744-0.028,1.065-0.052c0.161-0.012,0.312-0.027,0.443-0.049
			c0.131-0.021,0.242-0.053,0.307-0.078c0.068-0.026,0.065-0.04,0.031,0.002c-0.015,0.019-0.029,0.049-0.035,0.068
			c-0.002,0.002-0.002,0.005-0.004,0.007c-0.004,0.021,0.011-0.038-0.01,0.05l0.006-0.033c0.003-0.015-0.01,0.035-0.01,0.05
			l-0.004,0.049c-0.001,0.007-0.001,0.017-0.001,0.024c-0.001,0.009,0.002,0.025,0.001,0.029c0.002,0.026,0.001,0.008-0.016-0.025
			c-0.015-0.035-0.037-0.083-0.066-0.137c-0.061-0.108-0.142-0.237-0.233-0.367c-0.183-0.264-0.404-0.543-0.63-0.833
			c-0.451-0.587-0.945-1.21-1.31-2.07c-0.175-0.431-0.32-0.938-0.322-1.528v-0.055c-0.002-0.012,0.004-0.115,0.002-0.086
			l0.004-0.067c0.008-0.087,0.022-0.225,0.038-0.295c0.029-0.171,0.078-0.337,0.135-0.493c0.117-0.313,0.278-0.582,0.45-0.807
			c0.348-0.455,0.731-0.754,1.097-1.009c0.368-0.25,0.728-0.453,1.078-0.642c0.696-0.377,1.38-0.675,2.002-0.966
			c0.308-0.141,0.611-0.289,0.812-0.412c0.024-0.016,0.045-0.029,0.065-0.042l0.014-0.01c0.028-0.02-0.026,0.02-0.01,0.008
			l0.055-0.041l0.049-0.037l0.013-0.012l0.016-0.013l0.026-0.024c0.069-0.063,0.139-0.138,0.211-0.229
			c0.143-0.179,0.287-0.422,0.444-0.714c0.158-0.292,0.328-0.63,0.541-0.991c0.213-0.359,0.475-0.74,0.802-1.094
			c0.081-0.088,0.165-0.174,0.256-0.258l0.065-0.062c-0.011,0.008,0.053-0.048,0.056-0.049l0.025-0.021l0.11-0.092l0.154-0.122
			c0.054-0.042,0.091-0.066,0.136-0.1c0.089-0.066,0.175-0.121,0.261-0.181c0.681-0.452,1.339-0.804,2.003-1.152
			c0.666-0.344,1.333-0.667,2.015-0.973c0.343-0.155,0.688-0.303,1.044-0.447c0.179-0.072,0.357-0.146,0.546-0.218
			s0.378-0.147,0.598-0.219l0.083-0.026l0.092-0.026l0.091-0.026l0.105-0.027l0.055-0.012c0.004-0.002,0.066-0.014,0.024-0.008
			l0.063-0.018l0.032-0.009c0.016-0.003,0.018-0.006,0.018-0.008l0.009-0.009c0.001-0.002,0.01-0.007,0.019-0.012l0.024-0.014
			c0.017-0.011,0.03-0.021,0.045-0.031c0.026-0.02,0.048-0.04,0.059-0.059c0.024-0.035,0.012-0.069-0.065-0.032
			c-0.034,0.019-0.092,0.06-0.148,0.135c-0.06,0.074-0.117,0.186-0.152,0.317c-0.038,0.13-0.045,0.268-0.034,0.38
			c0.01,0.111,0.026,0.189,0.043,0.246c0.026,0.106,0.023,0.118-0.019,0.111c-0.037,0.008-0.394-0.202-0.709-0.401
			c-0.085-0.054-0.175-0.115-0.282-0.193c-0.055-0.038-0.113-0.083-0.178-0.137c-0.065-0.053-0.139-0.117-0.226-0.203
			c-0.088-0.088-0.189-0.194-0.31-0.365c-0.118-0.17-0.268-0.411-0.365-0.782c-0.049-0.187-0.077-0.397-0.073-0.612
			c0.002-0.213,0.036-0.426,0.088-0.605c0.105-0.365,0.259-0.608,0.382-0.777c0.125-0.17,0.23-0.279,0.324-0.37
			c0.094-0.09,0.173-0.156,0.244-0.213c0.146-0.113,0.264-0.193,0.373-0.262c0.218-0.136,0.404-0.231,0.588-0.318
			c0.182-0.085,0.358-0.16,0.531-0.228l0.249-0.093l0.127-0.048l0.112-0.04c0.302-0.108,0.616-0.233,0.917-0.375
			c0.303-0.143,0.599-0.309,0.901-0.499l0.483-0.294c0.175-0.104,0.359-0.212,0.598-0.331c0.117-0.058,0.255-0.12,0.414-0.181
			c0.162-0.058,0.357-0.119,0.602-0.154c0.123-0.017,0.254-0.027,0.395-0.025c0.069,0,0.146,0.007,0.218,0.014
			c-0.019-0.006,0.156,0.02,0.143,0.019l0.033,0.007l0.077,0.016c0.042,0.01,0.086,0.02,0.125,0.031
			c0.043,0.011,0.087,0.024,0.107,0.031l0.079,0.027c0.056,0.02,0.102,0.039,0.147,0.058c0.048,0.02,0.093,0.041,0.133,0.061
			c0.169,0.082,0.307,0.165,0.429,0.247c0.122,0.081,0.231,0.164,0.333,0.246c0.203,0.164,0.371,0.325,0.533,0.49
			c0.16,0.165,0.31,0.33,0.453,0.502c0.145,0.176,0.277,0.348,0.427,0.575l0.06,0.092c0.021,0.036,0.042,0.067,0.066,0.11
			l0.036,0.065c-0.069-0.12-0.01-0.017-0.021-0.036c0-0.001,0.025,0.043,0.004,0.005c-0.017-0.03-0.035-0.058-0.059-0.086
			c-0.024-0.031-0.041-0.053-0.053-0.066c-0.015-0.017-0.029-0.032-0.045-0.048c-0.031-0.033-0.067-0.063-0.104-0.092
			c-0.075-0.06-0.159-0.107-0.239-0.141c-0.167-0.067-0.303-0.081-0.394-0.079c-0.091,0.002-0.143,0.017-0.171,0.025
			c-0.059,0.019-0.042,0.019-0.019,0c0.021-0.017,0.056-0.052,0.088-0.091l0.105-0.15c0.029-0.042,0.037-0.058,0.1-0.137
			c0.051-0.067,0.104-0.133,0.157-0.196c0.192-0.224,0.42-0.435,0.663-0.612c0.242-0.178,0.492-0.315,0.733-0.429
			c0.119-0.054,0.237-0.104,0.354-0.149c0.111-0.039,0.23-0.086,0.339-0.116c0.444-0.139,0.853-0.227,1.249-0.299
			c0.195-0.033,0.392-0.069,0.584-0.095l0.283-0.042l0.288-0.039c0.377-0.049,0.751-0.088,1.123-0.125
			c0.745-0.073,1.486-0.127,2.239-0.16c0.754-0.031,1.514-0.043,2.315,0.007c0.402,0.025,0.816,0.064,1.272,0.152
			c0.231,0.045,0.472,0.099,0.751,0.194c0.143,0.047,0.291,0.105,0.46,0.187l0.131,0.068l0.142,0.083l0.13,0.085l0.056,0.038
			c0.172,0.117,0.351,0.203,0.464,0.237c0.026,0.007,0.051,0.014,0.067,0.017c0.018,0.003,0.026,0.003,0.026,0.003
			c0.002,0-0.008-0.001-0.028,0.001c-0.021,0.003-0.053,0.008-0.097,0.021c-0.082,0.023-0.203,0.09-0.28,0.17
			c-0.038,0.041-0.068,0.078-0.088,0.109l-0.007,0.011c-0.009,0.014,0.001-0.003,0.009-0.015l0.048-0.079
			c0.036-0.062,0.068-0.111,0.104-0.164c0.269-0.409,0.549-0.762,0.902-1.122c0.179-0.179,0.376-0.356,0.614-0.534
			c0.241-0.174,0.52-0.354,0.913-0.502c0.196-0.073,0.423-0.136,0.688-0.165c0.262-0.03,0.562-0.023,0.861,0.044
			c0.299,0.065,0.588,0.191,0.822,0.342c0.238,0.151,0.427,0.323,0.577,0.488c0.149,0.166,0.262,0.327,0.357,0.479
			c0.049,0.078,0.088,0.15,0.128,0.223l0.054,0.107l0.043,0.09l0.059,0.126l0.075,0.173c0.027,0.061,0.045,0.105,0.066,0.159
			l0.061,0.151c0.154,0.406,0.276,0.796,0.384,1.177c0.211,0.755,0.368,1.467,0.536,2.11c0.081,0.32,0.166,0.622,0.258,0.883
			c0.046,0.131,0.092,0.25,0.139,0.354c0.022,0.053,0.046,0.098,0.068,0.142l0.016,0.03l0.008,0.015
			c0.025,0.046-0.027-0.045-0.015-0.024l0.069,0.114c0.238,0.398,0.53,0.681,0.796,0.82c0.135,0.067,0.262,0.109,0.372,0.118
			c0.027,0.005,0.055,0.003,0.08,0.005l0.3-0.005c0.119,0,0.25,0.001,0.408,0.012c0.159,0.012,0.351,0.033,0.59,0.095
			c0.234,0.061,0.533,0.182,0.788,0.361c0.129,0.087,0.241,0.185,0.338,0.28c0.096,0.093,0.178,0.189,0.241,0.273
			c0.132,0.171,0.217,0.312,0.285,0.435c0.069,0.122,0.121,0.227,0.17,0.324l0.105,0.223c0.006,0.014,0.011,0.021-0.001-0.001
			c-0.006-0.013-0.012-0.025-0.021-0.039l-0.005-0.011l-0.001-0.001c0.002,0.006,0.008,0.016,0.021,0.032
			c0.044,0.064,0.129,0.166,0.22,0.266c0.184,0.202,0.401,0.413,0.63,0.613c0.229,0.2,0.469,0.392,0.714,0.57
			c0.489,0.356,1.006,0.663,1.506,0.869c0.497,0.212,0.969,0.293,1.312,0.309c0.175,0.008,0.325-0.006,0.473-0.057
			c0.073-0.025,0.145-0.063,0.218-0.108l0.227-0.162l0.242-0.169c0.326-0.224,0.657-0.439,1.038-0.652
			c0.19-0.105,0.394-0.21,0.619-0.307c0.228-0.097,0.486-0.193,0.796-0.259c0.309-0.065,0.688-0.092,1.06-0.034
			c0.185,0.029,0.356,0.075,0.511,0.127c0.147,0.052,0.281,0.108,0.392,0.161c0.22,0.105,0.369,0.188,0.496,0.247
			c0.061,0.03,0.118,0.057,0.171,0.079l0.04,0.017c-0.061-0.022,0.002,0-0.004-0.002l0.032,0.011l0.126,0.045
			c0.039,0.015,0.089,0.033,0.121,0.043l0.098,0.031l0.098,0.03l0.05,0.016l0.058,0.018c0.155,0.043,0.311,0.088,0.476,0.13
			c0.322,0.085,0.658,0.165,0.995,0.24c0.674,0.153,1.362,0.289,2.054,0.42c0.692,0.131,1.389,0.256,2.088,0.37
			c1.397,0.232,2.805,0.433,4.214,0.626c1.406,0.195,2.827,0.356,4.246,0.396v0.001l1.755,0.2l-0.285,1.82
			c-0.085,0.535-0.165,1.049-0.231,1.567c-0.07,0.516-0.129,1.03-0.175,1.545c-0.094,1.026-0.134,2.049-0.113,3.062
			c0.018,1.011,0.107,2.009,0.276,2.978c0.083,0.486,0.189,0.962,0.317,1.427c0.129,0.466,0.274,0.922,0.45,1.362l0.009,0.021
			l0.004,0.01c-0.019-0.043-0.003-0.005-0.007-0.012l0.021,0.047l0.04,0.094l0.078,0.188c0.054,0.134,0.102,0.234,0.151,0.344
			c0.09,0.211,0.207,0.45,0.312,0.678c0.228,0.461,0.465,0.922,0.714,1.385c0.496,0.924,1.037,1.841,1.589,2.756
			c0.555,0.913,1.128,1.821,1.714,2.723l1.776,2.706l0.889,1.355l0.446,0.678l0.238,0.36c-0.007-0.01,0.098,0.145,0.057,0.084
			l0.007,0.011l0.022,0.043c0.021,0.038,0.042,0.076,0.062,0.115c0.018,0.037,0.04,0.088,0.044,0.097l0.043,0.111l0.029,0.091
			c0.035,0.111,0.06,0.206,0.078,0.292c0.077,0.344,0.117,0.631,0.157,0.926c0.037,0.292,0.067,0.577,0.096,0.863
			c0.026,0.286,0.049,0.572,0.066,0.862c0.008,0.146,0.017,0.292,0.022,0.445l0.001,0.058l0.001,0.029
			c0.001,0.014-0.007-0.071-0.002-0.029v0.013l0.001,0.024c0,0.01,0-0.006-0.001-0.009l-0.004-0.02
			c-0.002-0.013-0.005-0.025-0.008-0.038l-0.007-0.019c-0.014-0.043-0.035-0.081-0.053-0.107c-0.039-0.052-0.061-0.052-0.048-0.031
			c0.013,0.02,0.056,0.056,0.116,0.095c0.119,0.077,0.305,0.156,0.504,0.216c0.407,0.127,0.887,0.196,1.369,0.225
			c0.485,0.026,0.981,0.009,1.474-0.044l1.618-0.202c1.077-0.137,2.157-0.273,3.171-0.477c0.251-0.052,0.494-0.11,0.714-0.175
			c0.106-0.032,0.211-0.067,0.284-0.099l0.046-0.021c0.013-0.007,0.017-0.01,0.025-0.014c0.006-0.001-0.002,0.001-0.003,0.001
			l-0.003,0.003l-0.002,0.001c-0.003,0.003,0.018-0.012,0.015-0.009l0.042-0.031l0.064-0.046c0.087-0.059,0.17-0.115,0.313-0.185
			c0.073-0.033,0.16-0.072,0.308-0.106c0.039-0.007,0.073-0.015,0.129-0.021c0.026-0.003,0.052-0.004,0.078-0.005
			c0.029-0.002,0.066-0.001,0.098,0c0.06,0.002,0.15,0.015,0.231,0.038c0.039,0.01,0.093,0.03,0.138,0.05
			c0.046,0.021,0.09,0.042,0.137,0.072c0.096,0.06,0.173,0.13,0.239,0.208c0.036,0.042,0.059,0.075,0.083,0.114
			c0.024,0.035,0.049,0.081,0.062,0.109c0.017,0.033,0.03,0.066,0.042,0.1c0.015,0.038,0.019,0.056,0.027,0.085
			c0.009,0.027,0.015,0.056,0.021,0.081l0.012,0.064c0.021,0.169,0.01,0.266,0.002,0.352c-0.021,0.164-0.051,0.267-0.08,0.365
			c-0.058,0.192-0.121,0.343-0.183,0.49c-0.064,0.146-0.13,0.283-0.197,0.417c-0.27,0.534-0.558,1.027-0.875,1.516
			c-0.297,0.466-0.614,0.924-0.828,1.326c-0.106,0.2-0.178,0.379-0.219,0.535c-0.018,0.08-0.031,0.153-0.032,0.23l-0.021,0.394
			c-0.013,0.151-0.028,0.326-0.048,0.476c-0.019,0.147-0.037,0.296-0.06,0.44c-0.02,0.146-0.045,0.291-0.07,0.435
			c-0.026,0.147-0.051,0.283-0.084,0.444l0,0l-0.087,0.336l-0.254,0.215l-0.731,0.618l-0.73,0.625
			c-0.486,0.418-0.967,0.842-1.446,1.267l-0.716,0.641c-0.236,0.214-0.474,0.43-0.707,0.645c-0.234,0.218-0.467,0.435-0.697,0.653
			c-0.233,0.217-0.455,0.44-0.684,0.658l-0.333,0.334l-0.164,0.167l-0.16,0.168c-0.104,0.113-0.216,0.224-0.313,0.336l-0.311,0.352
			c-0.104,0.121-0.209,0.245-0.312,0.37l-0.364,0.404l-0.362,0.377c-0.124,0.121-0.25,0.24-0.378,0.358
			c-0.261,0.228-0.534,0.443-0.824,0.634c-0.285,0.194-0.589,0.368-0.936,0.459c-0.347,0.095-0.696,0.171-1.046,0.226
			c-0.178,0.029-0.356,0.045-0.536,0.054c-0.088,0.007-0.178,0.011-0.27,0.007c-0.089,0-0.181-0.003-0.271-0.011l0.664-0.8
			c0.107-0.128,0.212-0.254,0.315-0.383c0.053-0.063,0.101-0.13,0.151-0.194c0.05-0.063,0.101-0.126,0.149-0.191
			c0.097-0.129,0.2-0.246,0.309-0.354c0.107-0.106,0.224-0.203,0.336-0.303l0.675-0.593l0.333-0.298l0.324-0.306l0.296-0.307
			c0.105-0.121,0.21-0.244,0.313-0.368l0.319-0.384c0.113-0.134,0.225-0.253,0.338-0.381l0.168-0.188l0.171-0.181l0.344-0.362
			c0.231-0.234,0.46-0.474,0.692-0.702c0.233-0.23,0.466-0.462,0.7-0.688c0.234-0.229,0.47-0.454,0.707-0.68l0.71-0.671
			c0.476-0.443,0.953-0.884,1.432-1.322l0.723-0.656l0.729-0.653l-0.341,0.552v0c0.03-0.105,0.064-0.236,0.094-0.355
			c0.031-0.124,0.06-0.247,0.086-0.37c0.028-0.124,0.047-0.246,0.071-0.368c0.02-0.12,0.034-0.217,0.051-0.336l0.045-0.424
			c0.02-0.196,0.059-0.39,0.109-0.574c0.11-0.37,0.266-0.692,0.424-0.968c0.325-0.55,0.643-0.981,0.94-1.43
			c0.283-0.424,0.551-0.873,0.774-1.313c0.057-0.11,0.109-0.219,0.153-0.324c0.047-0.102,0.086-0.205,0.106-0.275
			c0.01-0.032,0.015-0.062,0.01-0.033c0,0.018-0.01,0.046,0.005,0.146c0.003,0.014,0.003,0.027,0.007,0.04
			c0.003,0.017,0.008,0.038,0.014,0.055c0.006,0.023,0.009,0.033,0.019,0.062c0.011,0.026,0.022,0.051,0.035,0.076
			c0.008,0.021,0.028,0.059,0.048,0.088c0.021,0.032,0.039,0.056,0.068,0.092c0.057,0.065,0.122,0.124,0.2,0.175
			c0.041,0.024,0.075,0.043,0.115,0.06c0.036,0.017,0.082,0.032,0.113,0.041c0.064,0.02,0.139,0.029,0.182,0.031
			c0.022,0.001,0.052,0.001,0.073,0c0.018,0,0.033-0.001,0.051-0.002c0.039-0.006,0.058-0.009,0.08-0.013
			c0.08-0.018,0.104-0.033,0.114-0.037c0.02-0.011-0.013,0.007-0.038,0.025l-0.018,0.013l-0.041,0.031l-0.073,0.051
			c-0.027,0.02-0.064,0.043-0.089,0.058c-0.05,0.029-0.105,0.061-0.153,0.084l-0.141,0.066c-0.177,0.078-0.331,0.129-0.484,0.179
			c-0.306,0.093-0.591,0.162-0.874,0.227c-0.564,0.126-1.115,0.222-1.661,0.316c-0.548,0.094-1.092,0.179-1.633,0.266l-1.622,0.266
			c-0.591,0.093-1.188,0.145-1.793,0.153c-0.607,0.007-1.224-0.026-1.879-0.158c-0.328-0.069-0.667-0.161-1.034-0.329
			c-0.184-0.085-0.376-0.192-0.574-0.344s-0.409-0.357-0.578-0.648c-0.086-0.145-0.157-0.311-0.205-0.486l-0.017-0.068l-0.02-0.088
			l-0.016-0.105l-0.004-0.013c0.004,0.033-0.006-0.06-0.006-0.054l-0.004-0.022l-0.005-0.044c-0.021-0.12-0.041-0.245-0.064-0.371
			c-0.044-0.252-0.096-0.508-0.15-0.761c-0.056-0.254-0.112-0.507-0.174-0.752c-0.062-0.242-0.132-0.491-0.197-0.673
			c-0.017-0.045-0.032-0.081-0.043-0.099c-0.002-0.001-0.003-0.004-0.006-0.006c0,0.003,0.003,0.012,0.004,0.017
			c-0.003-0.006,0.013,0.029,0.023,0.051c0.012,0.024,0.024,0.047,0.038,0.07c0.011,0.017,0.01,0.015,0.007,0.009l-0.009-0.011
			l-0.007-0.011c-0.047-0.068,0.054,0.081,0.042,0.064l-0.249-0.299l-0.523-0.642c-0.348-0.43-0.69-0.863-1.027-1.302
			c-0.675-0.875-1.328-1.769-1.962-2.676c-0.636-0.909-1.26-1.826-1.864-2.764c-0.606-0.937-1.196-1.889-1.755-2.878
			c-0.281-0.492-0.55-0.999-0.814-1.513c-0.129-0.262-0.256-0.514-0.387-0.801c-0.063-0.138-0.134-0.285-0.184-0.404l-0.08-0.188
			l-0.041-0.094l-0.02-0.047l-0.031-0.075c-0.465-1.145-0.792-2.327-0.998-3.509c-0.206-1.183-0.305-2.367-0.322-3.538
			c-0.017-1.172,0.051-2.334,0.173-3.479c0.064-0.573,0.144-1.142,0.232-1.706c0.092-0.562,0.198-1.125,0.309-1.664l1.468,2.021
			h-0.001c-1.411-0.351-2.817-0.606-4.238-0.845c-1.416-0.242-2.831-0.496-4.25-0.753c-1.419-0.26-2.839-0.522-4.277-0.845
			c-0.359-0.081-0.719-0.165-1.088-0.261c-0.184-0.046-0.371-0.101-0.558-0.152l-0.07-0.021l-0.079-0.024l-0.158-0.05l-0.157-0.05
			c-0.052-0.017-0.087-0.031-0.132-0.046l-0.126-0.045l-0.098-0.036l-0.085-0.034c-0.113-0.046-0.218-0.095-0.317-0.142
			c-0.195-0.093-0.361-0.18-0.465-0.226c-0.053-0.024-0.085-0.034-0.104-0.041c-0.016-0.003-0.017-0.001-0.01,0
			c0.017,0.008,0.034,0.004-0.006,0.015c-0.08,0.021-0.312,0.134-0.544,0.284c-0.236,0.149-0.494,0.342-0.744,0.539l-0.188,0.15
			l-0.201,0.165c-0.209,0.171-0.44,0.326-0.685,0.463c-0.491,0.272-1.041,0.453-1.577,0.525c-0.537,0.073-1.06,0.047-1.535-0.04
			c-0.478-0.089-0.922-0.223-1.336-0.387c-0.831-0.324-1.555-0.746-2.232-1.212c-0.338-0.236-0.661-0.484-0.975-0.748
			c-0.316-0.267-0.62-0.544-0.925-0.864c-0.153-0.162-0.305-0.33-0.473-0.551c-0.043-0.055-0.087-0.118-0.135-0.187l-0.036-0.057
			c-0.014-0.022-0.021-0.03-0.044-0.068l-0.056-0.097l-0.031-0.059l-0.129-0.258c-0.061-0.123-0.129-0.223-0.09-0.163
			c0.01,0.012,0.032,0.042,0.063,0.072c0.033,0.034,0.079,0.072,0.133,0.11c0.106,0.078,0.237,0.128,0.302,0.144
			c0.064,0.018,0.078,0.015,0.058,0.015c-0.019,0-0.067,0-0.126,0.001l-0.236,0.008c-0.152,0.004-0.305,0.004-0.456-0.009
			c-0.603-0.039-1.171-0.214-1.68-0.46c-0.506-0.248-0.945-0.576-1.318-0.938l-0.141-0.137l-0.129-0.141
			c-0.089-0.094-0.167-0.191-0.245-0.289c-0.041-0.051-0.078-0.095-0.118-0.15l-0.121-0.17l-0.115-0.167l-0.072-0.113l-0.071-0.114
			l-0.048-0.083l-0.024-0.043l-0.049-0.088c-0.06-0.114-0.118-0.228-0.169-0.339c-0.102-0.221-0.188-0.435-0.263-0.64
			c-0.147-0.413-0.258-0.799-0.359-1.169c-0.199-0.738-0.354-1.421-0.532-2.042c-0.091-0.308-0.185-0.599-0.286-0.86l-0.039-0.097
			c-0.011-0.029-0.027-0.069-0.036-0.09l-0.031-0.072l-0.055-0.117l-0.014-0.03c0.001,0.002-0.023-0.049-0.001-0.002
			c-0.002-0.003-0.004-0.007-0.006-0.011c-0.003-0.006-0.006-0.012-0.006-0.01c0,0,0.009,0.016,0.04,0.049
			c0.028,0.032,0.082,0.084,0.169,0.14c0.085,0.055,0.207,0.109,0.331,0.135c0.126,0.028,0.244,0.03,0.329,0.02
			c0.087-0.009,0.138-0.026,0.168-0.038c0.057-0.023,0.028-0.016-0.02,0.021c-0.05,0.035-0.119,0.098-0.192,0.171
			c-0.147,0.147-0.317,0.356-0.44,0.544l-0.037,0.064l-0.091,0.146c-0.115,0.181-0.254,0.361-0.422,0.525
			c-0.167,0.166-0.357,0.312-0.561,0.435c-0.205,0.121-0.42,0.213-0.633,0.28c-0.427,0.133-0.829,0.156-1.184,0.134
			c-0.357-0.022-0.669-0.094-0.955-0.184c-0.568-0.185-1.026-0.442-1.439-0.734l-0.055-0.039c-0.035-0.024,0,0.001-0.001-0.001
			l0.021,0.012c0.008,0.006,0.017,0.011,0.025,0.015c0.002,0.002,0.008,0.005,0.014,0.006c0.009,0.004-0.009-0.006-0.037-0.018
			c-0.057-0.023-0.165-0.055-0.282-0.082c-0.245-0.054-0.543-0.1-0.853-0.134c-0.622-0.067-1.294-0.1-1.968-0.11
			c-0.676-0.011-1.363,0.002-2.044,0.036c-0.682,0.036-1.354,0.092-1.979,0.188c-0.307,0.05-0.6,0.111-0.84,0.183
			c-0.063,0.017-0.111,0.038-0.168,0.055c-0.052,0.019-0.097,0.038-0.141,0.056c-0.083,0.039-0.147,0.074-0.192,0.107
			c-0.048,0.034-0.084,0.064-0.128,0.11c-0.002,0.006-0.005,0.01-0.011,0.013c0.005-0.011-0.036,0.047-0.059,0.078l-0.072,0.101
			c-0.043,0.062-0.09,0.124-0.137,0.185c-0.192,0.239-0.411,0.46-0.674,0.657c-0.264,0.196-0.562,0.374-0.962,0.499
			c-0.199,0.061-0.429,0.109-0.698,0.116c-0.269,0.005-0.587-0.032-0.916-0.172c-0.163-0.068-0.325-0.163-0.471-0.276
			c-0.072-0.055-0.141-0.116-0.204-0.18c-0.031-0.032-0.061-0.064-0.091-0.098c-0.028-0.029-0.06-0.068-0.096-0.117
			c-0.035-0.046-0.066-0.093-0.098-0.141l-0.032-0.051l-0.055-0.093l0.004,0.007c0.002,0.005-0.004-0.003-0.004-0.004l-0.014-0.021
			c-0.048-0.07-0.135-0.18-0.22-0.279c-0.088-0.101-0.181-0.199-0.273-0.289c-0.091-0.087-0.186-0.167-0.263-0.225
			c-0.041-0.031-0.076-0.052-0.102-0.068c-0.027-0.016-0.045-0.023-0.038-0.017l0.01,0.007l0.021,0.01l0.017,0.006l0.042,0.013
			c0.021,0.005,0.039,0.01,0.061,0.014c0.029,0.005,0.033,0.004,0.013,0.002l-0.034-0.005c-0.034-0.005,0.119,0.019,0.077,0.012
			c0.028,0.006,0.06,0.004,0.083,0.006c0.053,0.001,0.096,0,0.129-0.006c0.068-0.008,0.091-0.017,0.085-0.012
			c-0.005,0.006-0.03,0.017-0.071,0.042c-0.079,0.046-0.199,0.127-0.325,0.214l-0.415,0.291c-0.293,0.206-0.594,0.432-0.897,0.668
			c-0.305,0.235-0.604,0.478-0.925,0.719l-0.452,0.334l-0.406,0.292c-0.126,0.09-0.25,0.175-0.33,0.235
			c-0.04,0.029-0.068,0.052-0.063,0.05c0.003-0.001,0.013-0.01,0.042-0.038c0.029-0.029,0.074-0.072,0.146-0.169
			c0.069-0.098,0.179-0.261,0.26-0.541c0.037-0.136,0.065-0.305,0.067-0.474c0.002-0.17-0.02-0.336-0.059-0.479
			c-0.077-0.285-0.183-0.445-0.249-0.542c-0.07-0.097-0.114-0.137-0.139-0.16c-0.023-0.022-0.031-0.026-0.028-0.02
			c0.001,0.004,0.012,0.017,0.028,0.033c0.032,0.033,0.085,0.08,0.144,0.131l0.406,0.354l0.26,0.232
			c0.051,0.045,0.106,0.1,0.159,0.153l0.079,0.081l0.081,0.089c0.215,0.242,0.442,0.532,0.635,0.954
			c0.096,0.218,0.179,0.462,0.222,0.75c0.043,0.287,0.039,0.606-0.024,0.913c-0.064,0.308-0.192,0.587-0.337,0.816
			c-0.147,0.231-0.316,0.415-0.479,0.556c-0.165,0.143-0.331,0.256-0.489,0.343c-0.16,0.092-0.314,0.16-0.463,0.217
			c-0.151,0.057-0.297,0.1-0.44,0.136c-0.071,0.018-0.142,0.032-0.213,0.047l-0.217,0.036l-0.121,0.017
			c-0.021,0.003-0.042,0.005-0.051,0.005l-0.034,0.002l-0.065,0.004c-0.066,0.01-0.026,0.002-0.044,0.004l-0.012-0.001
			c-0.009,0-0.015-0.002-0.024-0.002l-0.04,0.002l-0.04,0.003l-0.047,0.006c-0.128,0.014-0.278,0.045-0.431,0.083
			c-0.152,0.038-0.31,0.083-0.467,0.132c-0.315,0.1-0.634,0.214-0.954,0.333c-0.636,0.242-1.271,0.51-1.887,0.803
			c-0.309,0.146-0.611,0.297-0.903,0.455c-0.292,0.156-0.577,0.323-0.831,0.488c-0.062,0.042-0.126,0.083-0.181,0.124
			c-0.025,0.019-0.062,0.045-0.08,0.059l-0.056,0.042c-0.008,0.003-0.032,0.025-0.045,0.037l-0.052,0.044l-0.025,0.021
			c-0.016,0.013,0.032-0.027,0.006-0.003l-0.032,0.028c-0.042,0.039-0.081,0.08-0.121,0.123c-0.16,0.171-0.307,0.382-0.454,0.64
			c-0.149,0.256-0.296,0.558-0.473,0.897c-0.179,0.338-0.388,0.72-0.683,1.107c-0.147,0.193-0.317,0.385-0.51,0.563l-0.072,0.066
			l-0.088,0.074l-0.089,0.073l-0.059,0.045l-0.053,0.04l-0.063,0.047l-0.04,0.028c-0.054,0.038-0.108,0.074-0.159,0.105
			c-0.205,0.129-0.39,0.228-0.57,0.321c-0.179,0.094-0.35,0.176-0.52,0.256c-0.671,0.315-1.298,0.591-1.857,0.898
			c-0.278,0.153-0.533,0.319-0.742,0.489c-0.209,0.168-0.371,0.345-0.451,0.464c-0.04,0.061-0.062,0.104-0.07,0.125l-0.013,0.022
			c-0.004,0.017,0.004-0.031-0.002-0.031l-0.008,0.067c-0.004,0.052,0.002-0.03,0-0.019l-0.001,0.011
			c-0.018,0.126-0.005,0.328,0.055,0.571c0.059,0.243,0.153,0.52,0.277,0.807c0.12,0.288,0.268,0.588,0.429,0.897
			c0.161,0.311,0.339,0.625,0.528,0.972c0.093,0.175,0.19,0.356,0.288,0.569c0.048,0.107,0.097,0.223,0.142,0.357
			c0.042,0.134,0.091,0.29,0.111,0.494c0.006,0.048,0.009,0.107,0.009,0.162v0.092c-0.001,0.025-0.003,0.067-0.009,0.116
			c-0.004,0.037-0.017,0.109-0.02,0.116l-0.006,0.032c-0.024,0.109-0.019,0.072-0.028,0.114l-0.021,0.072
			c-0.064,0.189-0.162,0.379-0.286,0.54c-0.252,0.328-0.561,0.519-0.816,0.638c-0.262,0.123-0.497,0.189-0.713,0.247
			c-0.219,0.053-0.422,0.095-0.613,0.13c-0.388,0.071-0.741,0.128-1.065,0.195c-0.32,0.068-0.612,0.146-0.812,0.237
			c-0.099,0.045-0.171,0.092-0.203,0.124c-0.034,0.033-0.021,0.043-0.006,0.032c0.019-0.011,0.029-0.028,0.028-0.004
			c0,0,0.003-0.008,0.003-0.012c0.001-0.002,0.001-0.021,0,0.013l-0.005,0.067c-0.002,0.022,0.005-0.056,0.002-0.019l0.001,0.008
			c-0.001,0.023,0.002,0.033,0.002,0.034c0.002,0.007-0.009-0.035-0.021-0.047c-0.012-0.016-0.008,0,0.039,0.039
			c0.094,0.08,0.337,0.201,0.627,0.312c0.293,0.115,0.638,0.228,1.027,0.379c0.193,0.077,0.4,0.163,0.624,0.281
			c0.221,0.116,0.465,0.264,0.711,0.485c0.245,0.217,0.487,0.536,0.629,0.899c0.037,0.093,0.063,0.177,0.09,0.278
			c0.016,0.057,0.026,0.114,0.038,0.172l0.011,0.072c-0.003-0.03,0.011,0.071,0.014,0.103l0.008,0.096
			c0.003,0.068,0.004,0.134,0,0.205c-0.007,0.14-0.034,0.289-0.077,0.429c-0.089,0.285-0.246,0.523-0.401,0.694
			c-0.154,0.171-0.309,0.292-0.447,0.385c-0.28,0.184-0.518,0.286-0.737,0.376c-0.437,0.17-0.815,0.275-1.174,0.379
			c-0.355,0.102-0.689,0.197-0.964,0.297c-0.136,0.049-0.256,0.101-0.325,0.144c-0.007,0.004-0.022,0.012-0.017,0.011l0.001,0.002
			l-0.024,0.014c-0.009,0.007-0.017,0.017-0.024,0.023c-0.013,0.017-0.025,0.03-0.027,0.042c-0.026,0.047,0.031,0.051,0.064-0.053
			c0.016-0.049,0.021-0.126-0.001-0.203c-0.017-0.079-0.064-0.149-0.1-0.187c-0.01-0.01-0.016-0.019-0.024-0.025
			c0,0.001-0.021-0.017-0.032-0.024c-0.01-0.006-0.045-0.026-0.011-0.006l0.056,0.035c0.022,0.012-0.071-0.044-0.022-0.015
			l0.021,0.011l0.084,0.044c0.11,0.057,0.202,0.1,0.351,0.162l0.137,0.057c0.06,0.026,0.112,0.048,0.192,0.088
			c0.142,0.067,0.335,0.18,0.495,0.305l0.121,0.095c0.037,0.033,0.069,0.063,0.104,0.096c0.032,0.031,0.07,0.066,0.098,0.096
			l0.082,0.09c0.06,0.064,0.101,0.117,0.145,0.173c0.045,0.056,0.087,0.112,0.127,0.169l0.061,0.085l0.028,0.04l0.018,0.028
			l0.073,0.113l0.032,0.051l0.021,0.032l0.038,0.065l0.077,0.129l0.076,0.129l0.079,0.144c0.053,0.098,0.105,0.186,0.155,0.296
			c0.049,0.105,0.103,0.208,0.146,0.317c0.044,0.107,0.088,0.218,0.127,0.325l0.104,0.313c0.032,0.104,0.056,0.196,0.083,0.294
			l0.04,0.145l0.033,0.138l0.068,0.274l0.124,0.524c0.144,0.627,0.336,1.24,0.604,1.804c0.269,0.563,0.599,1.09,1.009,1.526
			c0.214,0.212,0.47,0.376,0.741,0.501c0.268,0.128,0.541,0.225,0.795,0.335c0.256,0.106,0.489,0.239,0.747,0.333
			c0.121,0.049,0.266,0.098,0.367,0.129l0.111,0.036l0.063,0.019l0.032,0.01c0.032,0.01-0.004-0.001,0-0.001
			c0.018,0.001,0.039,0.008,0.071,0.011c0.122,0.016,0.345,0.019,0.59-0.009c0.249-0.025,0.526-0.078,0.814-0.144
			c0.579-0.137,1.192-0.333,1.805-0.556c0.308-0.112,0.616-0.231,0.923-0.352c0.155-0.061,0.309-0.123,0.461-0.187l0.436-0.18
			l0.773-0.318l0.592,0.239c0.075,0.031,0.111,0.048,0.159,0.069l0.13,0.059c0.085,0.04,0.166,0.079,0.244,0.117
			c0.162,0.078,0.312,0.158,0.467,0.237l0.45,0.243l0.455,0.258l0.408,0.242l0.158,0.093c0.035,0.019,0.071,0.04,0.114,0.058
			c0.164,0.077,0.378,0.147,0.609,0.207c0.473,0.117,1.019,0.186,1.583,0.214c0.283,0.015,0.572,0.021,0.868,0.022l0.457-0.001
			l0.242-0.001l0.194-0.002c0.525-0.018,1.101-0.086,1.637-0.188c0.27-0.052,0.533-0.112,0.779-0.182l0.181-0.054l0.171-0.059
			c0.044-0.016,0.082-0.032,0.124-0.046c0.007-0.001,0.031-0.012,0.049-0.02l0.053-0.023l0.109-0.047
			c0.044-0.02-0.033,0.015-0.002,0l0.058-0.025l0.115-0.048c0.079-0.032,0.147-0.052,0.223-0.077c0.145-0.044,0.282-0.076,0.412-0.1
			c0.261-0.046,0.498-0.066,0.721-0.073c0.444-0.01,0.841,0.023,1.217,0.077c0.378,0.052,0.735,0.124,1.087,0.209
			c0.176,0.042,0.349,0.087,0.523,0.136l0.266,0.08l0.071,0.024l0.042,0.013c0.193,0.071,0.121,0.049,0.174,0.069
			c0.087,0.039,0.146,0.07,0.207,0.101c0.231,0.125,0.418,0.245,0.599,0.374c0.177,0.128,0.339,0.26,0.496,0.397
			c0.075,0.069,0.156,0.137,0.227,0.208l0.11,0.106l0.115,0.118l0.109,0.114l0.078,0.088l0.176,0.196
			c0.398,0.453,0.772,0.836,1.161,1.16c0.193,0.159,0.388,0.304,0.58,0.42c0.193,0.117,0.395,0.189,0.586,0.22
			c0.095,0.015,0.188,0.021,0.275,0.017c0.044,0,0.085-0.006,0.127-0.009c0.02-0.001,0.039-0.005,0.059-0.008l0.03-0.004
			c0.005,0,0.009,0,0.014-0.002l0.006-0.004c0.008-0.006,0.016-0.011,0.024-0.015l0.004-0.002l0.028-0.002l0.06-0.003l0.061-0.003
			l0.029,0c0.02,0-0.075-0.008-0.017-0.004l0.154-0.002c0.211,0.002,0.429,0.013,0.687,0.058c0.257,0.044,0.549,0.114,0.898,0.272
			c0.044,0.021,0.086,0.04,0.131,0.062l0.141,0.077c0.089,0.049,0.19,0.119,0.284,0.186c0.095,0.067,0.194,0.153,0.283,0.236
			c0.093,0.092,0.185,0.184,0.264,0.288c0.167,0.203,0.295,0.427,0.388,0.641c0.048,0.107,0.082,0.207,0.116,0.311
			c0.027,0.092,0.053,0.194,0.071,0.282c0.069,0.358,0.065,0.637,0.054,0.877c-0.018,0.241-0.054,0.44-0.092,0.63
			c-0.037,0.188-0.08,0.359-0.122,0.525l-0.126,0.482c-0.04,0.155-0.072,0.308-0.106,0.464c-0.062,0.319-0.114,0.641-0.146,0.956
			c-0.037,0.317-0.072,0.631-0.104,0.943c-0.062,0.625-0.112,1.243-0.135,1.85c-0.023,0.607-0.022,1.21,0.017,1.754
			c0.02,0.268,0.056,0.528,0.099,0.696c0.004,0.024,0.011,0.039,0.016,0.054c0.005,0.017,0.011,0.037,0.015,0.04l0.005,0.012
			c0.001,0.002,0.005,0.018-0.001-0.006c-0.003-0.015-0.008-0.029-0.016-0.044l-0.01-0.021c-0.005-0.008-0.008-0.016-0.001,0
			l0.028,0.052l0.016,0.026c0.015,0.028-0.071-0.133-0.035-0.065c0.004,0,0.002,0,0.007,0.002s0.012,0.008,0.025,0.019
			c0.047,0.041,0.166,0.133,0.336,0.22c0.168,0.092,0.384,0.179,0.614,0.262c0.469,0.166,1.009,0.302,1.573,0.408l0.266,0.052
			c0.093,0.021,0.188,0.042,0.284,0.065c0.191,0.047,0.385,0.102,0.581,0.165c0.391,0.133,0.778,0.287,1.219,0.558
			c0.111,0.071,0.227,0.15,0.359,0.258c0.065,0.054,0.139,0.118,0.218,0.198c0.043,0.045,0.082,0.087,0.133,0.147
			c0.023,0.024,0.049,0.058,0.077,0.099c0.028,0.038,0.052,0.071,0.088,0.129c0.033,0.053,0.06,0.097,0.101,0.181
			c0.034,0.07,0.071,0.154,0.108,0.283c0.023,0.034,0.102,0.452,0.059,0.674c0.036-0.193-0.037,0.258-0.098,0.408
			c-0.073,0.184-0.076,0.172-0.103,0.226c-0.027,0.052-0.043,0.079-0.054,0.097l-0.04,0.065l-0.03,0.044
			c-0.076,0.113-0.129,0.186-0.185,0.261c-0.212,0.288-0.407,0.533-0.605,0.787l-1.17,1.481l-0.573,0.736l-0.258,0.335
			c-0.032,0.047-0.063,0.097-0.093,0.156c-0.123,0.236-0.202,0.661-0.204,1.165c-0.005,0.506,0.053,1.079,0.129,1.679
			c0.076,0.604,0.173,1.239,0.241,1.922c0.034,0.343,0.062,0.697,0.068,1.074v0.15v0.13l-0.001,0.043l-0.003,0.057l-0.005,0.111
			c-0.008,0.068-0.012,0.142-0.022,0.208c-0.036,0.268-0.094,0.502-0.161,0.715c-0.135,0.426-0.299,0.778-0.468,1.108
			c-0.171,0.331-0.349,0.634-0.532,0.925c-0.361,0.582-0.735,1.118-1.101,1.64c-0.362,0.52-0.721,1.025-1.03,1.512
			c-0.154,0.241-0.298,0.479-0.402,0.688c-0.051,0.102-0.094,0.199-0.118,0.267c-0.001,0.001-0.001,0.005-0.002,0.005
			c-0.002,0.001,0-0.005-0.003,0.006l-0.01,0.028l-0.008,0.028c-0.009,0.035,0.003-0.013,0.003-0.008l-0.004,0.018
			c-0.001,0.011-0.006,0.016-0.007,0.033c-0.004,0.016-0.006,0.032-0.009,0.047c-0.021,0.14-0.016,0.37,0.013,0.612
			c0.026,0.246,0.073,0.513,0.134,0.785c0.118,0.549,0.286,1.124,0.468,1.7c0.362,1.159,0.806,2.331,1.234,3.524l0.324,0.899
			l0.158,0.453l0.159,0.466c0.202,0.63,0.43,1.257,0.65,1.932l0.082,0.256l0.076,0.263c0.052,0.174,0.094,0.357,0.139,0.537
			c0.081,0.366,0.142,0.741,0.178,1.093c0.033,0.348,0.049,0.669,0.058,0.97l0.011,0.435l0.004,0.438
			c0.001,0.192-0.009,0.229-0.01,0.33c-0.003,0.091,0,0.191,0.007,0.298c0.012,0.214,0.05,0.454,0.107,0.707
			c0.12,0.506,0.352,1.038,0.654,1.551c0.149,0.261,0.309,0.523,0.476,0.791c0.169,0.271,0.345,0.545,0.529,0.859
			c0.094,0.158,0.188,0.325,0.287,0.534c0.048,0.107,0.1,0.225,0.146,0.376c0.012,0.041,0.023,0.079,0.034,0.124l0.016,0.069
			c0.005,0.019,0.011,0.051,0.018,0.089s0.01,0.074,0.015,0.11l0.004,0.033c-0.002-0.032,0.006,0.076,0.006,0.088l0.002,0.054
			c0.007,0.28-0.018,0.47-0.036,0.655c-0.02,0.183-0.041,0.349-0.062,0.511c-0.042,0.324-0.084,0.622-0.108,0.915
			c-0.022,0.289-0.023,0.569,0.005,0.828c0.025,0.26,0.083,0.494,0.153,0.679c0.032,0.094,0.075,0.167,0.111,0.229l0.027,0.041
			c0.011,0.012,0.021,0.021,0.027,0.033c0.004,0.002,0.01,0.014,0.012,0.011c0.001-0.003,0.001-0.005,0.001-0.009
			c0.001-0.003,0.001-0.007,0-0.009c0.001-0.001-0.001-0.006,0.001-0.002l0.018,0.024l0.063,0.1
			c-0.06-0.107-0.021-0.041-0.037-0.069l-0.011-0.021l-0.021-0.038c-0.031-0.046-0.065-0.084-0.09-0.108
			c-0.053-0.05-0.072-0.054-0.047-0.046c0.021,0.008,0.077,0.03,0.149,0.086c0.073,0.052,0.163,0.135,0.273,0.216
			c0.109,0.08,0.233,0.161,0.365,0.206c0.132,0.05,0.271,0.062,0.41,0.052c0.276-0.01,0.562-0.046,0.85-0.098
			c0.289-0.055,0.578-0.124,0.869-0.208c0.146-0.042,0.291-0.088,0.442-0.135l0.233-0.071l0.129-0.036
			c0.047-0.014,0.097-0.027,0.173-0.041c0.027-0.005,0.026-0.006,0.095-0.014c0.062-0.008,0.104-0.01,0.097-0.01
			c0.109-0.005,0.141-0.002,0.215,0.003c0.073,0.007,0.109,0.012,0.145,0.02c0.035,0.004,0.08,0.013,0.107,0.02l0.073,0.017
			l0.116,0.03l0.293,0.083c0.154,0.043,0.282,0.079,0.409,0.108c0.253,0.064,0.49,0.11,0.733,0.151
			c0.484,0.084,0.982,0.114,1.494,0.076c0.129-0.01,0.256-0.023,0.386-0.04l0.177-0.024c0.025-0.003,0.065-0.011,0.105-0.018
			l0.116-0.021c0.214-0.04,0.444-0.103,0.685-0.186c0.241-0.086,0.489-0.19,0.738-0.304c0.25-0.117,0.501-0.245,0.752-0.38
			c0.501-0.274,1-0.587,1.493-0.915c0.982-0.658,1.938-1.399,2.842-2.175c0.228-0.194,0.448-0.39,0.662-0.591l0.318-0.299
			l0.154-0.149l0.139-0.141c0.406-0.424,0.783-0.855,1.124-1.3c0.337-0.447,0.638-0.901,0.894-1.395
			c0.264-0.49,0.477-1.025,0.728-1.608l0.04-0.099c0.016-0.038,0.032-0.074,0.049-0.108c0.034-0.07,0.071-0.134,0.108-0.198
			c0.075-0.121,0.155-0.232,0.233-0.33c0.161-0.196,0.328-0.347,0.488-0.482c0.328-0.267,0.651-0.461,0.972-0.628
			c0.643-0.33,1.28-0.552,1.922-0.733c0.64-0.181,1.28-0.323,1.919-0.44c0.319-0.062,0.639-0.117,0.959-0.167
			c0.16-0.022,0.325-0.029,0.499-0.003c0.088,0.01,0.176,0.031,0.266,0.058l0.14,0.052c0.022,0.01,0.047,0.017,0.069,0.026
			L379.928,321.369z"/>
		<path fill="#A2C617" d="M394.055,313.615c0.522-0.262,1.045-3.373,2.246-6.226c1.622-3.856,5.41-5.369,5.205-5.933
			c-0.113-0.313-3.333,0.092-5.675,3.542c-1.353,1.991-1.694,2.603-1.821,2.846c-0.097,0.183-0.342,0.072-0.782,0.185
			c-0.667,0.172-0.816,0.366-1.079,0.628c-0.381,0.381-0.301,0.68-0.301,0.68s-1.649,0.313-3.371,1.026
			c-1.431,0.591-2.124,1.589-2.801,2.512c-0.678,0.925-0.8,1.541-0.062,1.233c0.738-0.309,2.02-1.304,3.771-1.696
			c1.837-0.413,3.354-0.825,3.6-0.087C393.233,313.065,393.439,313.922,394.055,313.615z"/>
		<path fill="#A2C617" d="M380.809,299.109c-0.123,0.098-0.071,0.693,0.071,0.641c0.64-0.243,2.477-0.51,3.479-0.159
			c1.231,0.431,1.6,0.739,1.54,2.032c-0.062,1.295-0.679,1.665-0.433,1.787c0.179,0.09,1.259-0.351,1.93-1.584
			c0.253-0.47,0.597-1.721,0.269-2.674c-0.36-1.052-0.067-1.719,0.243-2.703c0.326-1.039,0.269-2.062-0.243-2.66
			c-0.886-1.034-1.536-1.367-1.783-1.122c-0.247,0.247,0.365,0.66,0.688,2.302c0.185,0.939-0.314,1.675-1.238,2.476
			C384.408,298.246,381.876,298.255,380.809,299.109z"/>
		<path fill="#A2C617" d="M380.938,310.392c0.256-0.485,1.252-0.85,2.072-0.802c0.815,0.048,1.185,0.444,0.515,0.559
			c-0.437,0.075-0.862-0.188-1.603,0.612c-0.739,0.803-0.895,1.332-1.042,1.366c-0.193,0.043-0.113-0.584-1.765-0.342
			c-0.375,0.055-1.079,0.255-1.309,0.455c-0.374,0.329-0.632,0.24-0.259-0.245c0.616-0.802,2.062-1.407,2.465-1.248
			C380.411,310.903,380.68,310.878,380.938,310.392z"/>
		<path fill="#A2C617" d="M392.453,300.132c-0.221,0.088-1.029-1.177-1.8-0.921c-0.522,0.173-1.115,0.9-1.224,0.866
			c-0.108-0.036-0.02-0.826,1.067-1.565c0.355-0.242,1.466,0.187,1.466,0.187s0.06-0.909,0.615-1.032
			c0.553-0.122,1.725-0.062,1.601,0.186c-0.123,0.246-1.108,0.308-1.294,0.617C392.7,298.775,392.674,300.041,392.453,300.132z"/>
		<path fill="#A2C617" d="M406.343,292.894c-1.08,0.427-2.66-0.712-4.324,0.129c-1.439,0.727-2.46,1.876-2.66,1.749
			c-0.2-0.129,0.784-1.755,2.262-2.987c1.479-1.232,2.121-0.848,2.859-0.811c0.869,0.042,1.763-0.484,2.135-1.039
			c0.369-0.554,1.733-2.647,3.755-3.599c1.209-0.569,3.856,0.107,3.698,0.441c-0.128,0.27-2.499-0.218-3.485,0.953
			C409.595,288.9,407.963,292.254,406.343,292.894z"/>
		<path fill="#A2C617" d="M403.837,329.033c0.725-0.609,0.832,0.078,1.262,0.139c0.431,0.062,2.62-0.889,3.73-0.644
			c1.108,0.247,1.354,0.863,1.354,0.863s-1.625-0.312-2.584,0.271c-0.896,0.546-1.053,0.983-1.053,0.983s0.841,1.145,0.557,1.579
			c-0.176,0.266-1.516-0.68-1.7-0.248c-0.186,0.432-0.911,2.898-0.764,4.684c0.056,0.675-0.246,1.231-0.555,0.616
			c-0.309-0.616-1.091-3.032-0.902-4.811c0.162-1.532,0.591-2.494,0.748-2.547C403.931,329.921,403.417,329.386,403.837,329.033z"/>
		<path fill="#A2C617" d="M386.938,331.44c0,0,1.207,0.351,1.823,1.705c0.616,1.355,0.585,2.558,0.466,2.571
			c-0.396,0.047-1.098-1.776-2.546-2.688c-0.697-0.437-1.216-0.842-1.754-0.186c-0.705,0.857-1.062,1.489-1.285,1.472
			c-0.223-0.016-1.301-1.389-0.726-2.056c0.585-0.68,1.776-0.96,1.801-1.309c0.022-0.352-0.709-0.837-2.618-0.96
			c-1.911-0.124-1.895-0.21-1.895-0.21s1.216-0.953,3.928-0.513c0.864,0.139,1.729,0.863,1.729,0.863s0.501-0.413,1.076-0.011
			C387.686,330.646,386.938,331.44,386.938,331.44z"/>
		<path fill="#A2C617" d="M381.961,317.389c1.152-0.127,1.69-2.049,1.938-2.356c0.246-0.309,1.354,0.062,0.308,2.156
			c-1.048,2.096-1.633,1.779-1.633,1.779s0.053,0.512-0.669,0.67c-0.665,0.146-1.11-0.385-1.11-0.385s-1.938,0.163-2.625-0.216
			c-0.847-0.468-1.727-1.11-0.863-1.232c0.863-0.124,1.759,0.42,2.877,0.395c0.626-0.014,0.186-1.009,0.555-1.18
			C381.171,316.82,381.55,317.436,381.961,317.389z"/>
		<path fill="#A2C617" d="M390.447,282.467c-1.118,0.32-1.896-1.822-1.284-3.293c0.559-1.346,2.706-2.725,3.063-3.085
			c0.495-0.5,0.577-1.66,1.575-3.562c0.662-1.263,3.492-3.041,4.659-3.396c1.905-0.58,1.891-0.014,1.201,0.27
			c-0.952,0.394-1.313,1.387-2.257,2.982c-0.87,1.47-1.864,3.183-1.864,4.908s0.594,3.215-0.146,3.831
			c-0.74,0.617-0.838-2.562-2.009-1.946c-1.344,0.707-1.779,1.25-2.174,1.884C390.695,281.888,390.591,282.426,390.447,282.467z"/>
	</g>
</g>
</svg>
