<?xml version="1.0" encoding="utf-8"?>
<!-- Generator: Adobe Illustrator 16.0.0, SVG Export Plug-In . SVG Version: 6.00 Build 0)  -->
<!DOCTYPE svg PUBLIC "-//W3C//DTD SVG 1.1//EN" "http://www.w3.org/Graphics/SVG/1.1/DTD/svg11.dtd">
<svg version="1.1" id="Layer_1" xmlns="http://www.w3.org/2000/svg" xmlns:xlink="http://www.w3.org/1999/xlink" x="0px" y="0px"
	 width="278.5px" height="144.5px" viewBox="0 0 278.5 144.5" enable-background="new 0 0 278.5 144.5" xml:space="preserve">
<path fill="#E6E8E8" d="M43.026,58.954c-4.894,0-7.041,3.014-8.382,5.912c-0.696-2.835-2.853-5.912-7.979-5.912
	c-4.313,0-6.927,2.306-8.674,5.912h-0.062c0.235-1.715,0.353-3.905,0.353-5.323c-0.759-0.023-1.683-0.034-2.706-0.034
	c-4.157,0-9.943,0.189-12.892,0.567v4.73c1.692,0.121,7.204,0.353,8.606,0.591V88.99h7.399V74.914c0-5.496,2.319-9.633,5.761-9.633
	c2.853,0,3.435,2.19,3.435,5.084V88.99h7.348V74.914c0-5.73,2.315-9.633,5.581-9.633c2.739,0,3.44,1.953,3.44,5.084V88.99h7.458
	V68.766C51.711,62.087,48.619,58.954,43.026,58.954"/>
<path fill="#969699" d="M43.027,58.282c-4.525,0-6.875,2.48-8.258,4.869c-0.941-2.119-3.124-4.869-8.104-4.869
	c-3.28,0-5.85,1.257-7.796,3.826c0.059-0.956,0.088-1.863,0.088-2.564v-0.652l-0.657-0.021c-0.766-0.021-1.695-0.034-2.724-0.034
	c-4.23,0-10.048,0.197-12.977,0.572L2.01,59.484v0.592v4.73v0.626l0.626,0.045c0.497,0.034,1.317,0.079,2.267,0.132
	c1.91,0.102,4.417,0.24,5.711,0.377V88.99v0.673h0.676h7.396h0.677V88.99V74.914c0-5.193,2.138-8.964,5.084-8.964
	c2.013,0,2.763,1.197,2.763,4.415V88.99v0.673h0.676h7.345h0.674V88.99V74.914c0-5.278,2.018-8.964,4.907-8.964
	c1.708,0,2.764,0.74,2.764,4.415V88.99v0.673h0.675h7.46h0.675V88.99V68.766C52.386,60.102,47.297,58.282,43.027,58.282
	 M34.647,64.867c1.338-2.898,3.486-5.912,8.38-5.912c5.592,0,8.684,3.133,8.684,9.812v20.225h-7.46V70.366
	c0-3.132-0.7-5.084-3.439-5.084c-3.266,0-5.581,3.903-5.581,9.634v14.077h-7.346V70.366c0-2.895-0.581-5.084-3.439-5.084
	c-3.44,0-5.761,4.138-5.761,9.634v14.077H11.29V65.398c-1.404-0.239-6.914-0.471-8.607-0.591v-4.73
	c2.949-0.377,8.732-0.567,12.892-0.567c1.021,0,1.944,0.011,2.705,0.034c0,1.419-0.115,3.608-0.351,5.323h0.062
	c1.746-3.606,4.361-5.912,8.674-5.912C31.793,58.954,33.947,62.031,34.647,64.867"/>
<path fill="#E6E8E8" d="M16.249,96.614c-4.546,0-10.439,0.197-13.563,0.595v4.95c1.771,0.12,7.377,0.368,8.842,0.622v36.312h7.807
	V96.65C18.434,96.626,17.383,96.614,16.249,96.614"/>
<path fill="#969699" d="M16.25,95.941L16.25,95.941c-4.292,0-10.395,0.189-13.652,0.602L2.01,96.617v0.592v4.949v0.629l0.629,0.043
	c0.472,0.033,1.22,0.072,2.088,0.123c1.937,0.105,4.726,0.26,6.127,0.415v35.726v0.672h0.674h7.808h0.674v-0.672V96.652v-0.654
	l-0.656-0.018C18.448,95.957,17.391,95.941,16.25,95.941 M11.528,139.092v-36.312c-1.464-0.25-7.072-0.5-8.844-0.621v-4.949
	c3.126-0.397,9.021-0.597,13.566-0.597c1.134,0,2.185,0.014,3.087,0.038v42.441H11.528L11.528,139.092z"/>
<path fill="#E6E8E8" d="M37.07,107.709c-8.496,0-14.286,6.934-14.286,16.527c0,10.957,5.115,15.471,13.043,15.471
	c8.384,0,14.283-6.926,14.283-16.584C50.111,112.533,44.996,107.709,37.07,107.709 M36.447,132.963
	c-4.158,0-6.236-3.217-6.236-9.533c0-6.312,3.147-9.041,6.353-9.041c4.215,0,6.13,3.223,6.13,9.166
	C42.693,129.801,39.994,132.963,36.447,132.963"/>
<path fill="#969699" d="M37.07,107.035c-8.81,0-14.962,7.072-14.962,17.203c0,13.34,7.461,16.141,13.719,16.141
	c8.669,0,14.959-7.258,14.959-17.258C50.788,112.748,45.915,107.035,37.07,107.035 M35.828,139.707
	c-7.929,0-13.043-4.512-13.043-15.469c0-9.594,5.79-16.533,14.286-16.533c7.925,0,13.041,4.828,13.041,15.416
	C50.111,132.781,44.212,139.707,35.828,139.707 M36.563,114.387c-3.206,0-6.353,2.73-6.353,9.045s2.078,9.533,6.236,9.533
	c3.547,0,6.247-3.164,6.247-9.414C42.693,117.611,40.779,114.387,36.563,114.387 M36.447,132.293c-3.744,0-5.559-2.898-5.559-8.861
	c0-6.18,3.057-8.371,5.676-8.371c3.671,0,5.454,2.777,5.454,8.49C42.016,128.945,39.882,132.293,36.447,132.293"/>
<path fill="#E6E8E8" d="M122.722,58.954c-4.721,0-7.042,2.424-8.79,5.912l-0.058-0.061c0.29-1.539,0.409-3.844,0.409-5.263
	c-0.77-0.02-1.559-0.033-2.358-0.033c-2.419,0-4.943,0.101-7.286,0.301v5.222c0.958,0.111,1.892,0.239,2.647,0.365v23.594h7.399
	V74.801c0-5.143,1.915-9.52,5.703-9.52c2.742,0,3.557,1.828,3.557,4.909v18.802h7.398V68.356
	C131.344,63.209,129.251,58.954,122.722,58.954"/>
<path fill="#969699" d="M122.722,58.282c-3.964,0-6.28,1.646-7.85,3.726c0.058-0.874,0.083-1.744,0.083-2.465v-0.652l-0.654-0.021
	c-0.775-0.019-1.571-0.033-2.377-0.033c-2.497,0-5.036,0.106-7.344,0.306l-0.615,0.052v0.615v5.222v0.597l0.594,0.069
	c0.725,0.085,1.432,0.18,2.053,0.273v23.021v0.672h0.674h7.399h0.676v-0.672v-14.19c0-4.404,1.555-8.85,5.027-8.85
	c1.78,0,2.882,0.708,2.882,4.239v18.802v0.672h0.675h7.398h0.676v-0.672V68.356C132.02,61.861,128.719,58.282,122.722,58.282
	 M113.932,64.867c1.747-3.488,4.069-5.912,8.79-5.912c6.528,0,8.622,4.254,8.622,9.401v20.636h-7.398V70.19
	c0-3.081-0.814-4.909-3.557-4.909c-3.79,0-5.703,4.376-5.703,9.52v14.191h-7.399V65.398c-0.754-0.126-1.688-0.253-2.647-0.365
	v-5.222c2.342-0.2,4.866-0.301,7.286-0.301c0.8,0,1.589,0.01,2.356,0.033c0,1.419-0.117,3.724-0.406,5.263L113.932,64.867z"/>
<path fill="#E6E8E8" d="M205.987,96.613c-2.661,0-5.344,0.107-7.799,0.32v5.473c0.99,0.105,1.947,0.24,2.729,0.373v5.23
	c-1.345-0.188-1.659-0.242-2.94-0.242c-10.068,0-16.049,7.174-16.049,17.58c0,8.791,3.302,14.424,10.681,14.424
	c4.637,0,7.448-2.422,9.033-5.818h0.128c-0.244,1.666-0.364,3.654-0.364,5.199c0.792,0.023,1.75,0.035,2.802,0.035
	c4.295,0,10.211-0.193,13.294-0.594v-4.951c-1.765-0.123-7.374-0.369-8.841-0.619V96.649
	C207.778,96.629,206.881,96.613,205.987,96.613 M194.928,133.213c-3.538,0-4.824-2.979-4.824-8.729
	c0-7.617,3.177-10.463,7.627-10.463c1.346,0,1.781,0.18,3.187,0.494v8.607C200.917,128.377,199.018,133.213,194.928,133.213"/>
<path fill="#969699" d="M205.987,95.941c-2.689,0-5.407,0.111-7.859,0.323l-0.615,0.054v0.615v5.473v0.6l0.602,0.067
	c0.725,0.077,1.462,0.175,2.129,0.278v3.887c-0.782-0.105-1.229-0.143-2.266-0.143c-10.16,0-16.725,7.164-16.725,18.252
	c0,9.734,4.031,15.1,11.355,15.1c3.455,0,6.248-1.316,8.209-3.834c-0.057,0.859-0.088,1.729-0.088,2.541v0.65l0.656,0.021
	c0.799,0.023,1.763,0.035,2.824,0.035c4.213,0,10.199-0.188,13.381-0.6l0.586-0.078v-0.588v-4.951v-0.627l-0.629-0.045
	c-0.494-0.033-1.29-0.078-2.215-0.131c-2.004-0.111-4.643-0.258-5.997-0.406V96.648v-0.652l-0.653-0.018
	C207.793,95.957,206.889,95.941,205.987,95.941 M200.917,108.01v-5.23c-0.78-0.133-1.739-0.266-2.729-0.373v-5.471
	c2.455-0.213,5.138-0.32,7.799-0.32c0.895,0,1.792,0.011,2.676,0.035v36.377c1.467,0.248,7.076,0.494,8.84,0.617v4.951
	c-3.083,0.4-8.999,0.594-13.293,0.594c-1.053,0-2.01-0.012-2.803-0.035c0-1.545,0.12-3.531,0.365-5.201h-0.129
	c-1.585,3.398-4.396,5.822-9.033,5.822c-7.379,0-10.68-5.633-10.68-14.428c0-10.406,5.98-17.578,16.049-17.578
	C199.257,107.77,199.573,107.824,200.917,108.01 M197.731,114.02c-4.45,0-7.627,2.848-7.627,10.465c0,5.75,1.286,8.729,4.824,8.729
	c4.09,0,5.988-4.836,5.988-10.09v-8.605C199.512,114.201,199.076,114.02,197.731,114.02 M194.928,132.539
	c-2.052,0-4.15-0.955-4.15-8.055c0-6.498,2.342-9.793,6.953-9.793c1.004,0,1.438,0.104,2.302,0.311l0.211,0.049v8.07
	C200.243,127.811,198.596,132.539,194.928,132.539"/>
<path fill="#E6E8E8" d="M141.578,59.51c-2.555,0-5.228,0.106-7.718,0.328v5.183c0.97,0.118,1.902,0.25,2.681,0.375v14.841
	c0,5.143,2.094,9.4,8.682,9.4c4.719,0,7.041-2.424,8.726-5.912l0.122,0.06c-0.297,1.657-0.352,3.901-0.352,5.259
	c0.783,0.023,1.593,0.037,2.417,0.037c3.224,0,6.661-0.189,9.581-0.568v-4.729c-1.688-0.121-3.666-0.355-5.066-0.588V59.605h-7.402
	v14.192c0,5.142-1.912,9.516-5.698,9.516c-2.737,0-3.551-1.838-3.551-4.904V59.543C143.21,59.52,142.401,59.51,141.578,59.51"/>
<path fill="#969699" d="M141.578,58.838c-2.635,0-5.325,0.114-7.777,0.328l-0.615,0.056v0.615v5.185v0.596l0.59,0.073
	c0.718,0.087,1.43,0.183,2.089,0.281V80.24c0,6.588,3.234,10.072,9.358,10.072c4.024,0,6.362-1.752,7.886-3.824
	c-0.057,0.99-0.066,1.92-0.066,2.559v0.649l0.652,0.021c0.792,0.024,1.611,0.037,2.441,0.037c3.395,0,6.827-0.204,9.67-0.574
	l0.588-0.076v-0.589v-4.729v-0.626l-0.627-0.044c-1.408-0.1-3.087-0.287-4.441-0.492v-23.02v-0.671h-0.673h-7.403h-0.674v0.671
	v14.19c0,4.402-1.559,8.844-5.025,8.844c-1.725,0-2.877-0.72-2.877-4.231V59.544V58.89l-0.654-0.018
	C143.224,58.851,142.407,58.838,141.578,58.838 M145.223,89.639c-6.588,0-8.684-4.258-8.684-9.398V65.397
	c-0.777-0.126-1.709-0.259-2.679-0.375v-5.185c2.491-0.219,5.164-0.328,7.718-0.328c0.821,0,1.633,0.014,2.42,0.036v18.864
	c0,3.066,0.814,4.904,3.552,4.904c3.788,0,5.698-4.373,5.698-9.517v-14.19h7.404v23.59c1.398,0.234,3.377,0.47,5.064,0.591v4.728
	c-2.918,0.381-6.357,0.568-9.581,0.568c-0.825,0-1.636-0.012-2.419-0.035c0-1.36,0.057-3.604,0.351-5.26l-0.116-0.059
	C152.264,87.216,149.943,89.639,145.223,89.639"/>
<path fill="#E6E8E8" d="M179.948,107.602c-4.695,0-7.377,3.234-8.756,6.918h-0.123c0.366-2.166,0.548-4.646,0.548-6.26
	c-0.805-0.023-1.633-0.035-2.471-0.035c-2.329,0-4.753,0.09-7.033,0.271v5.582c0.794,0.098,1.546,0.209,2.181,0.311v24.703h7.754
	v-12.566c0-7.516,2.17-11.295,6.514-11.295c0.596,0,1.229,0.07,1.902,0.211l0.369-7.803
	C180.53,107.613,180.237,107.602,179.948,107.602"/>
<path fill="#969699" d="M179.948,106.932c-3.217,0-5.896,1.475-7.789,4.223c0.094-1.15,0.133-2.168,0.133-2.895v-0.652l-0.654-0.021
	c-0.811-0.021-1.645-0.033-2.491-0.033c-2.382,0-4.832,0.096-7.087,0.273l-0.619,0.049v0.621v5.582v0.592l0.592,0.074
	c0.559,0.068,1.098,0.146,1.588,0.219v24.131v0.67h0.674h7.754h0.674v-0.67v-12.568c0-7.148,1.912-10.623,5.84-10.623
	c0.543,0,1.137,0.066,1.766,0.197l0.776,0.162l0.036-0.789l0.367-7.803l0.03-0.646l-0.651-0.053
	C180.567,106.941,180.254,106.932,179.948,106.932 M171.069,114.518h0.123c1.379-3.684,4.061-6.916,8.756-6.916
	c0.289,0,0.582,0.014,0.887,0.039l-0.369,7.801c-0.674-0.141-1.307-0.213-1.902-0.213c-4.344,0-6.515,3.783-6.515,11.297v12.568
	h-7.754v-24.705c-0.634-0.1-1.387-0.213-2.177-0.311v-5.58c2.279-0.184,4.699-0.273,7.029-0.273c0.839,0,1.666,0.014,2.471,0.035
	C171.617,109.873,171.435,112.352,171.069,114.518"/>
<path fill="#E6E8E8" d="M145.094,107.639c-3.907,0-7.812,0.809-10.861,1.928l0.669,6.621c2.564-1.49,6.223-2.422,8.971-2.422
	c4.394,0,5.917,1.676,5.917,4.896v1.67c-10.312,0-17.508,3.906-17.508,11.27c0,4.957,3.169,8.107,8.661,8.107
	c4.516,0,8.24-2.414,9.705-5.883l0.058,0.059c-0.244,1.621-0.31,3.467-0.31,5.27c0.797,0.027,1.625,0.039,2.469,0.039
	c2.09,0,4.28-0.076,6.375-0.232v-0.963v-4.727c-0.592-0.08-1.149-0.158-1.639-0.244v-14.674
	C157.602,111.607,154.857,107.639,145.094,107.639 M143.323,133.645c-2.259,0-3.6-1.301-3.6-3.285c0-2.473,1.83-4.887,10.067-4.887
	v0.74C149.79,129.928,147.168,133.645,143.323,133.645"/>
<path fill="#969699" d="M145.094,106.967c-3.692,0-7.631,0.699-11.096,1.965l-0.491,0.184l0.054,0.516l0.669,6.625l0.105,1.039
	l0.909-0.525c2.359-1.373,5.905-2.332,8.629-2.332c4.351,0,5.243,1.688,5.243,4.225v1.004c-10.823,0.182-17.51,4.719-17.51,11.938
	c0,5.412,3.578,8.775,9.337,8.775c3.58,0,6.804-1.459,8.837-3.873c-0.04,0.797-0.057,1.67-0.057,2.65v0.652l0.651,0.018
	c0.806,0.025,1.64,0.039,2.491,0.039c2.127,0,4.35-0.08,6.426-0.234l0.621-0.047v-0.623v-0.965v-4.727v-0.586l-0.581-0.08
	c-0.369-0.047-0.722-0.098-1.056-0.148v-14.1C158.277,110.371,154.334,106.967,145.094,106.967 M134.903,116.188l-0.67-6.623
	c3.049-1.117,6.955-1.926,10.862-1.926c9.763,0,12.507,3.967,12.507,10.715v14.674c0.49,0.086,1.047,0.162,1.639,0.242v4.727v0.965
	c-2.094,0.154-4.285,0.232-6.374,0.232c-0.843,0-1.672-0.012-2.469-0.037c0-1.805,0.065-3.65,0.31-5.271l-0.057-0.061
	c-1.467,3.471-5.191,5.883-9.707,5.883c-5.492,0-8.66-3.152-8.66-8.104c0-7.363,7.196-11.271,17.508-11.271v-1.67
	c0-3.221-1.523-4.895-5.918-4.895C141.125,113.768,137.467,114.697,134.903,116.188 M149.79,125.473
	c-8.237,0-10.067,2.416-10.067,4.887c0,1.98,1.341,3.285,3.6,3.285c3.846,0,6.468-3.717,6.468-7.432V125.473z M143.323,132.973
	c-1.831,0-2.923-0.977-2.923-2.613c0-1.018,0-4.059,8.717-4.207v0.061C149.116,129.463,146.901,132.973,143.323,132.973"/>
<path fill="#E6E8E8" d="M107.922,96.615c-2.428,0-4.855,0.088-7.13,0.263v5.608c0.722,0.093,1.411,0.188,2,0.293v35.443
	c3.48,0.994,6.167,1.484,10.562,1.484c10.437,0,16.048-7.174,16.048-17.58c0-9.096-3.9-14.422-11.165-14.422
	c-4.269,0-6.54,2.102-8.061,5.445h-0.066c0.309-1.605,0.488-4.148,0.488-6.002V96.65C109.71,96.629,108.816,96.615,107.922,96.615
	 M113.905,133.4c-1.652,0-2.181-0.18-3.306-0.561v-8.668c0-5.137,1.355-9.908,5.379-9.908c3.541,0,5.191,2.914,5.191,8.676
	C121.169,130.551,118.359,133.4,113.905,133.4"/>
<path fill="#969699" d="M107.922,95.945c-2.489,0-4.907,0.086-7.184,0.262l-0.624,0.047v0.623v5.609v0.59l0.59,0.076
	c0.532,0.07,0.999,0.133,1.41,0.195v34.877v0.506l0.488,0.139c3.432,0.979,6.16,1.508,10.751,1.508
	c10.317,0,16.724-6.99,16.724-18.25c0-9.592-4.316-15.094-11.841-15.094c-3.053,0-5.36,1.025-7.088,3.188
	c0.083-1.113,0.125-2.215,0.125-3.076V96.648v-0.652l-0.658-0.019C109.724,95.958,108.822,95.945,107.922,95.945 M113.354,139.707
	c-4.396,0-7.083-0.49-10.562-1.48v-35.445c-0.589-0.105-1.277-0.199-2-0.294v-5.61c2.275-0.176,4.703-0.26,7.13-0.26
	c0.894,0,1.788,0.012,2.677,0.033v10.496c0,1.857-0.178,4.4-0.488,6.004h0.066c1.521-3.346,3.792-5.441,8.061-5.441
	c7.264,0,11.164,5.324,11.164,14.42C129.402,132.533,123.791,139.707,113.354,139.707 M115.978,114.266
	c-4.025,0-5.379,4.768-5.379,9.908v8.664c1.126,0.385,1.654,0.562,3.306,0.562c4.454,0,7.264-2.852,7.264-10.461
	C121.169,117.18,119.519,114.266,115.978,114.266 M113.905,132.727c-1.309,0-1.833-0.107-2.63-0.371v-8.182
	c0-2.779,0.458-9.236,4.704-9.236c1.938,0,4.514,0.828,4.514,8.002C120.492,127.141,119.81,132.727,113.905,132.727"/>
<path fill="#E6E8E8" d="M88.005,107.639c-5.126,0-7.576,3.16-8.98,6.193c-0.731-2.969-2.989-6.193-8.359-6.193
	c-4.513,0-7.266,2.42-9.1,6.193h-0.059c0.243-1.793,0.364-4.082,0.364-5.574c-0.787-0.023-1.605-0.035-2.438-0.035
	c-2.31,0-4.741,0.092-7.03,0.27v5.582c0.783,0.107,1.519,0.213,2.148,0.312v24.707H62.3v-14.734c0-5.758,2.446-10.096,6.047-10.096
	c2.992,0,3.6,2.293,3.6,5.328v19.502h7.689v-14.734c0-6.008,2.632-10.096,6.053-10.096c2.865,0,3.596,2.049,3.596,5.328v19.502
	h7.812V117.92C97.097,110.926,93.863,107.639,88.005,107.639"/>
<path fill="#969699" d="M88.006,106.967c-3.905,0-6.812,1.689-8.849,5.154c-0.966-2.223-3.236-5.154-8.49-5.154
	c-3.462,0-6.17,1.342-8.218,4.084c0.066-1.043,0.098-2.033,0.098-2.791v-0.654l-0.655-0.02c-0.794-0.021-1.62-0.035-2.46-0.035
	c-2.37,0-4.817,0.094-7.083,0.271l-0.62,0.051v0.621v5.582v0.588l0.584,0.076c0.55,0.074,1.077,0.15,1.562,0.221v24.131v0.67h0.675
	h7.75h0.675v-0.67v-14.736c0-5.457,2.257-9.422,5.372-9.422c2.13,0,2.926,1.266,2.926,4.656v19.502v0.67h0.674h7.689h0.677v-0.67
	v-14.736c0-5.457,2.259-9.422,5.373-9.422c1.807,0,2.926,0.779,2.926,4.656v19.502v0.67h0.674h7.81h0.677v-0.67v-21.174
	C97.771,110.754,94.394,106.967,88.006,106.967 M79.024,113.832c1.404-3.033,3.852-6.193,8.982-6.193
	c5.858,0,9.089,3.289,9.089,10.281v21.174h-7.81v-19.502c0-3.279-0.731-5.326-3.6-5.326c-3.416,0-6.049,4.09-6.049,10.094v14.734
	h-7.689v-19.502c0-3.035-0.608-5.326-3.6-5.326c-3.6,0-6.047,4.336-6.047,10.094v14.734h-7.75v-24.705
	c-0.629-0.102-1.365-0.205-2.147-0.311v-5.582c2.289-0.182,4.721-0.271,7.029-0.271c0.833,0,1.652,0.012,2.441,0.037
	c0,1.49-0.125,3.777-0.369,5.572h0.062c1.835-3.775,4.584-6.193,9.102-6.193C76.033,107.639,78.294,110.861,79.024,113.832"/>
<path fill="#E6E8E8" d="M67.821,58.953c-3.73,0-7.462,0.77-10.373,1.828l0.642,6.328c2.446-1.415,5.943-2.302,8.565-2.302
	c4.195,0,5.655,1.6,5.655,4.675v1.591c-9.851,0-16.729,3.729-16.729,10.763c0,4.728,3.034,7.749,8.276,7.749
	c4.314,0,7.869-2.311,9.267-5.622l0.055,0.062c-0.229,1.531-0.29,3.309-0.29,5.021c0.756,0.022,1.538,0.033,2.334,0.033
	c2.094,0,4.298-0.077,6.393-0.242v-0.914v-4.459c-0.669-0.088-1.306-0.178-1.85-0.268V69.185
	C79.768,62.735,77.147,58.953,67.821,58.953 M66.131,83.786c-2.156,0-3.44-1.243-3.44-3.135c0-2.365,1.749-4.672,9.619-4.672v0.713
	C72.31,80.24,69.801,83.786,66.131,83.786"/>
<path fill="#969699" d="M67.821,58.282c-3.527,0-7.294,0.664-10.605,1.868l-0.494,0.181l0.054,0.519l0.642,6.326l0.105,1.036
	l0.906-0.524c2.25-1.299,5.632-2.21,8.227-2.21c4.131,0,4.978,1.601,4.978,4.001v0.926c-10.336,0.179-16.726,4.523-16.726,11.429
	c0,5.194,3.431,8.42,8.95,8.42c3.395,0,6.456-1.373,8.408-3.646c-0.035,0.734-0.05,1.54-0.05,2.437v0.651l0.653,0.019
	c0.762,0.025,1.551,0.036,2.356,0.036c2.159,0,4.385-0.084,6.444-0.244l0.625-0.05v-0.621v-0.913v-4.462V82.87l-0.589-0.075
	c-0.443-0.057-0.867-0.114-1.262-0.173V69.183C80.442,61.543,76.668,58.282,67.821,58.282 M58.09,67.109l-0.642-6.328
	c2.911-1.06,6.643-1.827,10.373-1.827c9.326,0,11.947,3.781,11.947,10.229v14.014c0.543,0.089,1.181,0.178,1.851,0.264v4.463v0.913
	c-2.096,0.163-4.3,0.244-6.395,0.244c-0.797,0-1.578-0.011-2.334-0.034c0-1.714,0.06-3.492,0.29-5.021l-0.055-0.062
	c-1.397,3.31-4.953,5.621-9.266,5.621c-5.242,0-8.276-3.019-8.276-7.749c0-7.035,6.878-10.766,16.729-10.766v-1.589
	c0-3.073-1.46-4.674-5.655-4.674C64.033,64.807,60.536,65.692,58.09,67.109 M72.31,75.979c-7.87,0-9.618,2.308-9.618,4.674
	c0,1.89,1.283,3.133,3.439,3.133c3.671,0,6.18-3.548,6.18-7.095L72.31,75.979L72.31,75.979z M66.131,83.113
	c-1.759,0-2.763-0.896-2.763-2.46c0-0.965-0.003-3.847,8.265-3.995v0.033C71.633,79.779,69.53,83.113,66.131,83.113"/>
<path fill="#E6E8E8" d="M100.407,58.919c-4.485,0-7.04,3.088-8.358,6.598h-0.115c0.35-2.069,0.527-4.435,0.527-5.972
	c-0.785-0.024-1.59-0.037-2.41-0.037c-2.196,0-4.478,0.085-6.626,0.255v5.344c0.742,0.092,1.443,0.189,2.041,0.29v23.593h7.396
	V76.982c0-7.169,2.074-10.779,6.218-10.779c0.57,0,1.176,0.066,1.821,0.202l0.354-7.452
	C100.964,58.931,100.683,58.919,100.407,58.919"/>
<path fill="#969699" d="M100.404,58.248c-3.04,0-5.582,1.375-7.387,3.945c0.075-0.943,0.117-1.858,0.117-2.649v-0.652l-0.653-0.021
	c-0.792-0.024-1.603-0.036-2.431-0.036c-2.245,0-4.554,0.089-6.679,0.259l-0.621,0.048v0.62v5.343v0.593l0.59,0.074
	c0.547,0.069,1.028,0.132,1.45,0.196v23.02v0.673h0.674h7.399h0.674v-0.673V76.982c0-6.8,1.815-10.107,5.542-10.107
	c0.52,0,1.085,0.063,1.682,0.189l0.78,0.162l0.036-0.788l0.35-7.453l0.031-0.647l-0.65-0.052
	C101,58.259,100.7,58.248,100.404,58.248 M91.933,65.517h0.115c1.319-3.509,3.873-6.598,8.356-6.598c0.277,0,0.56,0.013,0.85,0.035
	l-0.351,7.454c-0.648-0.135-1.256-0.203-1.823-0.203c-4.142,0-6.215,3.61-6.215,10.779v12.007h-7.399V65.397
	c-0.599-0.102-1.301-0.198-2.041-0.291v-5.343c2.151-0.17,4.43-0.255,6.626-0.255c0.818,0,1.624,0.011,2.408,0.036
	C92.459,61.082,92.281,63.448,91.933,65.517"/>
<path fill="#CCCCCC" d="M44.251,88.99V70.365c0-3.131-0.7-5.085-3.439-5.085c-3.266,0-5.581,3.904-5.581,9.635V88.99h-7.347V70.365
	c0-2.894-0.579-5.085-3.438-5.085c-3.44,0-5.761,4.139-5.761,9.635V88.99H11.29V65.397c-1.404-0.239-6.915-0.47-8.607-0.591v-4.73
	c3.673-0.471,11.749-0.649,15.596-0.533c0,1.419-0.115,3.608-0.352,5.323h0.062c1.747-3.606,4.362-5.912,8.674-5.912
	c5.129,0,7.284,3.077,7.982,5.912c1.341-2.898,3.486-5.912,8.379-5.912c5.593,0,8.685,3.133,8.685,9.815V88.99H44.251L44.251,88.99z
	"/>
<path fill="#E6E6E6" d="M19.336,139.092h-7.809v-36.312c-1.464-0.25-7.071-0.5-8.844-0.621v-4.949
	c3.908-0.495,12.137-0.685,16.653-0.559V139.092z"/>
<path fill="#E6E6E6" d="M36.563,114.387c-3.206,0-6.353,2.73-6.353,9.045s2.078,9.533,6.237,9.533c3.547,0,6.245-3.164,6.245-9.414
	C42.693,117.607,40.779,114.387,36.563,114.387 M35.832,139.707c-7.929,0-13.048-4.512-13.048-15.469
	c0-9.594,5.792-16.533,14.284-16.533c7.928,0,13.043,4.828,13.043,15.416C50.111,132.781,44.213,139.707,35.832,139.707"/>
<path fill="#CCCCCC" d="M122.722,58.954c-4.721,0-7.042,2.424-8.79,5.912l-0.058-0.061c0.29-1.539,0.409-3.844,0.409-5.263
	c-3.085-0.088-6.526,0-9.645,0.268v5.222c0.958,0.111,1.893,0.239,2.647,0.365v23.594h7.399V74.801c0-5.143,1.914-9.52,5.703-9.52
	c2.742,0,3.556,1.828,3.556,4.909v18.802h7.398V68.356C131.344,63.209,129.251,58.954,122.722,58.954"/>
<path fill="#E6E6E6" d="M200.917,123.123c0,5.254-1.899,10.09-5.989,10.09c-3.537,0-4.823-2.979-4.823-8.729
	c0-7.617,3.177-10.465,7.626-10.465c1.347,0,1.781,0.184,3.188,0.498L200.917,123.123L200.917,123.123z M208.662,133.025V96.65
	c-3.501-0.098-7.193,0-10.475,0.285v5.471c0.99,0.105,1.947,0.24,2.729,0.373v5.23c-1.345-0.188-1.659-0.24-2.94-0.24
	c-10.068,0-16.049,7.172-16.049,17.578c0,8.793,3.302,14.426,10.681,14.426c4.637,0,7.448-2.424,9.033-5.82h0.128
	c-0.244,1.668-0.364,3.656-0.364,5.201c4.024,0.117,12.255-0.061,16.096-0.559v-4.951
	C215.737,133.52,210.129,133.275,208.662,133.025"/>
<path fill="#CCCCCC" d="M160.653,83.197V59.606h-7.404v14.189c0,5.143-1.912,9.515-5.698,9.515c-2.737,0-3.551-1.834-3.551-4.904
	V59.543c-3.237-0.092-6.846,0.004-10.14,0.295v5.185c0.972,0.117,1.904,0.249,2.678,0.375v14.84c0,5.143,2.098,9.4,8.686,9.4
	c4.718,0,7.041-2.424,8.728-5.91l0.116,0.058c-0.293,1.657-0.352,3.9-0.352,5.257c3.85,0.122,8.332-0.053,12.003-0.528v-4.729
	C164.032,83.664,162.047,83.432,160.653,83.197"/>
<path fill="#E6E6E6" d="M171.192,114.518h-0.123c0.366-2.166,0.548-4.645,0.548-6.258c-3.034-0.088-6.401-0.01-9.5,0.236v5.582
	c0.79,0.098,1.542,0.211,2.177,0.309v24.707h7.754v-12.568c0-8.541,2.805-12.262,8.418-11.084l0.369-7.803
	C175.585,107.209,172.656,110.611,171.192,114.518"/>
<path fill="#E6E6E6" d="M149.79,126.213c0,3.715-2.622,7.432-6.468,7.432c-2.256,0-3.6-1.303-3.6-3.285
	c0-2.471,1.83-4.887,10.067-4.887V126.213z M159.24,137.996v-4.727c-0.592-0.08-1.149-0.156-1.639-0.242v-14.674
	c0-6.748-2.742-10.717-12.508-10.717c-3.907,0-7.812,0.809-10.864,1.926l0.672,6.625c2.564-1.49,6.223-2.42,8.971-2.42
	c4.394,0,5.917,1.674,5.917,4.896v1.668c-10.312,0-17.508,3.906-17.508,11.271c0,4.953,3.169,8.104,8.661,8.104
	c4.518,0,8.242-2.414,9.703-5.883l0.062,0.062c-0.246,1.617-0.312,3.467-0.312,5.266c2.774,0.09,5.898,0.025,8.843-0.191V137.996
	L159.24,137.996z"/>
<path fill="#E6E6E6" d="M113.905,133.4c-1.652,0-2.181-0.178-3.304-0.562v-8.664c0-5.139,1.354-9.908,5.38-9.908
	c3.539,0,5.186,2.912,5.186,8.674C121.167,130.551,118.357,133.4,113.905,133.4 M118.237,107.707c-4.272,0-6.542,2.096-8.061,5.441
	h-0.063c0.305-1.604,0.487-4.146,0.487-6.002V96.65c-3.297-0.087-6.697-0.012-9.81,0.227v5.609c0.721,0.095,1.412,0.188,1.999,0.293
	v35.445c3.48,0.994,6.171,1.482,10.565,1.482c10.433,0,16.049-7.174,16.049-17.58C129.404,113.031,125.503,107.707,118.237,107.707"
	/>
<path fill="#E6E6E6" d="M88.005,107.639c-5.126,0-7.576,3.16-8.98,6.193c-0.731-2.969-2.989-6.193-8.359-6.193
	c-4.513,0-7.266,2.42-9.1,6.193h-0.059c0.243-1.793,0.364-4.082,0.364-5.574c-2.973-0.088-6.351-0.012-9.468,0.234v5.582
	c0.783,0.107,1.519,0.213,2.148,0.312v24.707H62.3v-14.734c0-5.758,2.446-10.096,6.047-10.096c2.992,0,3.6,2.293,3.6,5.328v19.502
	h7.689v-14.734c0-6.008,2.632-10.096,6.053-10.096c2.865,0,3.596,2.049,3.596,5.328v19.502h7.812V117.92
	C97.097,110.926,93.863,107.639,88.005,107.639"/>
<path fill="#CCCCCC" d="M72.306,76.692c0,3.548-2.503,7.095-6.179,7.095c-2.152,0-3.437-1.244-3.437-3.135
	c0-2.365,1.747-4.672,9.616-4.672V76.692z M81.616,87.922v-4.459c-0.667-0.088-1.303-0.177-1.85-0.266V69.185
	c0-6.45-2.622-10.231-11.946-10.231c-3.731,0-7.462,0.769-10.373,1.828l0.642,6.328c2.446-1.415,5.946-2.302,8.563-2.302
	c4.197,0,5.654,1.601,5.654,4.675v1.591c-9.846,0-16.724,3.729-16.724,10.763c0,4.729,3.033,7.749,8.275,7.749
	c4.313,0,7.866-2.312,9.268-5.621l0.053,0.061c-0.229,1.531-0.29,3.309-0.29,5.022c2.734,0.084,5.836,0.015,8.727-0.211
	L81.616,87.922L81.616,87.922z"/>
<path fill="#CCCCCC" d="M92.048,65.517h-0.115c0.35-2.069,0.526-4.435,0.526-5.972c-2.881-0.088-6.083-0.014-9.034,0.219v5.343
	c0.742,0.092,1.443,0.189,2.039,0.291v23.592h7.401V76.982c0-8.152,2.678-11.703,8.037-10.576l0.352-7.454
	C96.242,58.542,93.449,61.793,92.048,65.517"/>
<polygon fill="#E3E3E3" points="249.1,1.762 225.139,15.859 225.139,16.039 225.588,15.771 225.592,15.771 248.981,2.004 
	272.446,15.771 272.448,15.771 272.93,16.055 272.936,42.191 272.936,42.742 272.948,100.888 235.21,123.082 234.72,122.799 
	234.72,122.797 223.021,115.934 223.021,116.146 235.26,123.328 273.145,101.049 273.131,15.859 "/>
<path fill="#D9D9D9" d="M272.446,15.771L272.446,15.771l0.484,0.285L272.446,15.771z M272.93,16.055v0.552l-23.432,13.722v11.316
	l11.213-6.631l12.225,7.178L272.93,16.055z M272.936,42.741l-11.721,6.9v0.575v41.327v0.553l-25.523,14.993v15.707l-0.484,0.287
	l-0.486-0.287l0.486,0.287l37.738-22.194L272.936,42.741z"/>
<path fill="#E3E3E3" d="M197.842,1.762l-24.051,14.097v55.673l23.997,14.058l23.995-14.058V71.53L198.39,85.233l-0.483,0.281
	l-0.486-0.281l-23.43-13.726V16.057v-0.001l0.336-0.197l0.149-0.087l23.481-13.764l23.373,13.764h0.003l0.452,0.266v-0.174
	L197.842,1.762z M223.466,20.285l-1.651,0.97v0.161l1.651-0.971l1.642,0.965v-0.161L223.466,20.285z"/>
<path fill="#C7C7C7" d="M174.475,15.771l-0.146,0.086L174.475,15.771z M173.99,16.057L173.99,16.057v55.452l23.43,13.724V30.329
	l-23.43-13.72V16.057z M198.39,85.232l-0.485,0.284L198.39,85.232z"/>
<path fill="#D9D9D9" d="M221.332,15.771l-0.003,0.001l0.452,0.267L221.332,15.771z M221.781,16.627L198.39,30.329v54.904
	l23.392-13.704v-10.5l-15.283-8.961V30.432l15.316-9.018v-0.158l-0.033,0.018V16.627z M197.42,85.232L197.42,85.232l0.484,0.284
	L197.42,85.232z"/>
<polygon fill="#C9CCCC" points="197.905,30.612 197.42,30.327 197.42,85.231 197.905,85.517 198.39,85.231 198.39,30.327 "/>
<path fill="#CCCCCF" d="M197.956,2.004l-23.481,13.766l23.43,13.721l23.428-13.721L197.956,2.004z M174.325,15.858l-0.336,0.197
	v0.001L174.325,15.858z"/>
<polygon fill="#BDBFC2" points="174.475,15.771 174.325,15.858 173.99,16.057 173.99,16.607 197.418,30.327 197.418,29.777 
	197.905,29.492 "/>
<polygon fill="#C4C7C7" points="221.332,15.771 197.906,29.492 198.39,29.774 198.39,30.329 221.781,16.627 221.781,16.037 "/>
<polygon fill="#BDBFC2" points="197.418,29.777 197.418,30.329 197.905,30.61 198.391,30.329 198.391,29.777 197.905,29.492 "/>
<polygon fill="#CCCFCF" points="221.819,61.017 222.999,61.711 222.999,40.66 221.819,39.966 "/>
<polygon fill="#C4C7C9" points="206.497,30.432 206.497,30.432 206.497,52.066 221.781,61.028 221.781,60.999 221.815,61.017 
	221.815,39.966 206.497,30.984 "/>
<polygon fill="#E3E3E3" points="225.139,71.526 225.139,71.533 248.045,84.947 248.059,84.938 "/>
<polygon fill="#BFC2C4" points="249.501,43.341 249.501,84.666 261.215,91.542 261.215,50.216 "/>
<path fill="#BABDBF" d="M225.588,15.771l-0.449,0.269l0.453-0.268L225.588,15.771z M225.139,16.626v4.642l-0.031-0.02v0.161
	l14.892,8.739l0.032,0.019l0.452,0.265v0.552v21.084l-15.345,8.99v10.469l22.92,13.411l0.468-0.276V30.326L225.139,16.626z"/>
<polygon fill="#B5B8BA" points="248.527,84.661 248.527,42.217 249.498,41.645 249.498,30.329 249.016,30.61 248.527,30.327 "/>
<polygon fill="#ABADB0" points="248.527,84.661 248.527,84.551 249.305,84.551 249.498,84.664 249.498,43.339 248.527,42.77 
	248.527,42.217 "/>
<polygon fill="#E3E3E3" points="223.971,40.66 223.971,61.71 225.108,61.046 225.108,39.994 "/>
<polygon fill="#D6D6D9" points="223.489,40.945 222.999,40.662 222.999,61.711 223.484,61.995 223.974,61.71 223.974,40.662 "/>
<polygon fill="#CFD1D1" points="240.484,30.984 225.106,39.995 225.106,61.043 225.139,61.026 225.139,61.059 240.484,52.066 "/>
<polygon fill="#D1D4D4" points="223.466,20.445 221.815,21.416 221.815,38.843 223.489,39.825 225.108,38.874 225.108,21.41 "/>
<polygon fill="#CCCCCF" points="221.815,21.416 206.497,30.432 206.983,30.147 221.815,38.846 "/>
<polygon fill="#C7C7C9" points="221.819,39.965 222.999,40.66 222.999,40.11 223.489,39.825 221.819,38.845 "/>
<polygon fill="#C2C4C7" points="206.983,30.146 206.497,30.432 206.497,30.983 221.815,39.966 221.815,38.845 "/>
<path fill="#BFC2C2" d="M225.108,21.407v17.466l14.89-8.728L225.108,21.407z M240.031,30.167l0.453,0.27v0.55v-0.553L240.031,30.167
	z"/>
<polygon fill="#D1D1D1" points="223.489,39.825 223.974,40.109 223.974,40.659 225.106,39.997 225.106,38.874 "/>
<polygon fill="#C9CCCC" points="222.999,40.11 222.999,40.66 223.489,40.945 223.971,40.66 223.971,40.11 223.489,39.825 "/>
<polygon fill="#C7C7C9" points="239.998,30.146 225.106,38.875 225.106,39.997 240.484,30.983 240.484,30.436 240.034,30.167 "/>
<polygon fill="#C7C7C7" points="223.022,100.23 223.021,115.932 234.72,122.797 234.72,107.086 "/>
<polygon fill="#BFC2C2" points="234.72,122.795 235.207,123.082 235.692,122.799 235.692,107.088 235.207,107.375 234.72,107.084 
	"/>
<polygon fill="#CCCCCF" points="248.057,84.938 248.043,84.947 248.205,85.041 223.65,99.479 235.204,106.25 259.776,91.816 
	248.527,85.215 "/>
<polygon fill="#C4C7C7" points="261.215,91.542 261.215,92.094 260.732,92.379 259.776,91.816 235.205,106.25 235.692,106.537 
	235.692,107.09 261.215,92.094 "/>
<path fill="#BDBFC2" d="M248.527,85.215l11.249,6.602L248.527,85.215z"/>
<polygon fill="#BABABD" points="249.501,84.664 249.501,85.781 248.527,85.213 248.527,85.215 259.776,91.816 260.73,92.379 
	261.215,92.092 261.215,91.542 "/>
<polygon fill="#B8BABD" points="248.057,84.938 248.527,85.213 248.527,84.661 "/>
<polygon fill="#B0B3B5" points="248.527,84.551 248.527,84.661 248.527,85.215 249.498,85.784 249.498,84.664 249.305,84.551 "/>
<polygon fill="#BDBFC2" points="223.65,99.477 223.021,99.85 223.021,100.23 234.72,107.088 234.72,106.537 235.204,106.25 "/>
<polygon fill="#BABABD" points="234.72,106.537 234.72,107.086 235.207,107.375 235.692,107.088 235.692,106.537 235.204,106.251 
	"/>
<path fill="#D1D4D4" d="M272.936,42.739v-0.548V42.739z"/>
<polygon fill="#CCCCCF" points="260.711,35.014 249.498,41.643 249.498,42.218 261.68,49.366 261.215,49.643 272.936,42.742 
	272.936,42.193 "/>
<polygon fill="#C2C2C4" points="249.501,42.217 249.501,43.339 261.215,50.216 261.215,49.641 261.682,49.368 "/>
<polygon fill="#BDBDBF" points="248.527,42.217 249.016,41.934 249.498,42.217 249.498,41.643 "/>
<polygon fill="#B8BABA" points="248.527,42.217 248.527,42.77 249.498,43.341 249.498,42.217 249.016,41.934 "/>
<polygon fill="#CCCCCF" points="248.981,2.004 225.592,15.771 249.012,29.492 272.446,15.771 "/>
<polygon fill="#C4C7C7" points="272.446,15.771 249.016,29.492 249.498,29.774 249.498,30.329 272.93,16.607 272.93,16.055 "/>
<polygon fill="#B8BABD" points="225.592,15.772 225.139,16.037 225.139,16.627 248.527,30.327 248.527,29.777 249.016,29.492 "/>
<polygon fill="#B5B8BA" points="248.527,29.777 248.527,30.327 249.016,30.61 249.498,30.329 249.498,29.777 249.016,29.492 "/>
<path fill="#9C9C9C" d="M249.1,1l-24.617,14.486v4.634l-0.851-0.497l-0.169-0.101l-1.021,0.604v-4.641L197.838,1l-24.707,14.486
	v56.423l24.658,14.441l24.652-14.441v-9.765l0.874,0.513l0.168,0.101l0.997-0.585v9.736l22.429,13.132l-24.547,14.432l-0.004,17.049
	l0.163,0.094l0.166-0.281l-0.166,0.281l12.739,7.473l38.542-22.668l-0.015-85.935L249.1,1z M225.139,16.037v-0.178L249.1,1.76
	l24.031,14.099l0.014,85.188l-37.883,22.279l-12.241-7.18v-0.215l-0.024-0.014V99.663l25.049-14.72l-22.906-13.411v-0.005
	l-0.031-0.019v-10.43l-1.623,0.949L223,61.744v-0.001l-1.183-0.696v10.462l-0.036,0.019v0.005l-23.992,14.058L173.79,71.534V15.859
	l24.048-14.099l23.943,14.099v0.177l0.037,0.02v0.55v4.649l1.645-0.972l1.645,0.964v-5.19L225.139,16.037z"/>
<path fill="#9C9E9E" d="M221.781,71.529l0.037-0.02V61.047l-0.037-0.019V71.529z M221.781,16.627v4.646l0.037-0.018v-4.648
	L221.781,16.627z M221.819,16.057l-0.037-0.019L221.819,16.057z"/>
<polygon fill="#878A8F" points="221.781,16.627 221.819,16.607 221.819,16.057 221.781,16.037 "/>
<polygon fill="#8A8C8F" points="221.819,61.046 222.999,61.74 222.999,61.713 221.819,61.017 "/>
<polygon fill="#8A8C8F" points="221.781,61.027 221.819,61.046 221.819,61.017 221.781,60.999 "/>
<path fill="#6E7073" d="M225.106,61.076v10.433l0.033,0.018V61.057L225.106,61.076z M225.106,21.249l0.033,0.019v-4.642
	l-0.033-0.018v-0.552V21.249z M225.106,16.057l0.033-0.018L225.106,16.057z"/>
<path fill="#ABABAD" d="M222.999,61.745l0.485,0.282l-0.485-0.287V61.745z M223.971,61.71v0.03l-0.486,0.287l1.623-0.951v-0.033
	L223.971,61.71z"/>
<polygon fill="#A3A6A8" points="223.484,61.996 222.998,61.713 222.998,61.742 223.489,62.026 223.971,61.742 223.971,61.711 "/>
<polygon fill="#96999C" points="225.106,61.044 225.106,61.075 225.139,61.057 225.139,61.024 "/>
<polygon fill="#7D8282" points="222.996,115.92 223.018,115.932 223.022,100.23 222.996,100.215 222.996,99.664 "/>
<polygon fill="#878A8C" points="248.043,84.947 222.994,99.665 223.481,99.379 223.65,99.477 248.205,85.04 "/>
<polygon fill="#7A7D82" points="222.996,99.664 222.996,100.217 223.022,100.23 223.022,99.85 223.65,99.477 223.48,99.381 "/>
<polygon fill="#737578" points="225.106,16.057 225.106,16.608 225.139,16.626 225.139,16.039 "/>
</svg>
